<mxfile host="app.diagrams.net" modified="2024-05-26T18:29:20.174Z" agent="Mozilla/5.0 (Windows NT 10.0; Win64; x64) AppleWebKit/537.36 (KHTML, like Gecko) Chrome/125.0.0.0 Safari/537.36" etag="OEtN7LEzlYaRYXsOF4SJ" version="24.4.8" type="google" pages="3">
  <diagram name="會員登入循序圖" id="N6cW0Ea2X5RUlEAwPuuk">
    <mxGraphModel grid="1" page="1" gridSize="10" guides="1" tooltips="1" connect="1" arrows="1" fold="1" pageScale="1" pageWidth="1100" pageHeight="850" background="none" math="0" shadow="0">
      <root>
        <mxCell id="BSZZwutlIpp1AhKQ46wx-0" />
        <mxCell id="BSZZwutlIpp1AhKQ46wx-1" parent="BSZZwutlIpp1AhKQ46wx-0" />
        <mxCell id="BSZZwutlIpp1AhKQ46wx-23" value="：伺服器" style="shape=umlLifeline;perimeter=lifelinePerimeter;whiteSpace=wrap;html=1;container=0;dropTarget=0;collapsible=0;recursiveResize=0;outlineConnect=0;portConstraint=eastwest;newEdgeStyle={&quot;edgeStyle&quot;:&quot;elbowEdgeStyle&quot;,&quot;elbow&quot;:&quot;vertical&quot;,&quot;curved&quot;:0,&quot;rounded&quot;:0};rounded=1;" vertex="1" parent="BSZZwutlIpp1AhKQ46wx-1">
          <mxGeometry x="-615.97" y="947.5" width="100" height="1142.5" as="geometry" />
        </mxCell>
        <mxCell id="BSZZwutlIpp1AhKQ46wx-2" value="：使用者介面" style="shape=umlLifeline;perimeter=lifelinePerimeter;whiteSpace=wrap;html=1;container=0;dropTarget=0;collapsible=0;recursiveResize=0;outlineConnect=0;portConstraint=eastwest;newEdgeStyle={&quot;edgeStyle&quot;:&quot;elbowEdgeStyle&quot;,&quot;elbow&quot;:&quot;vertical&quot;,&quot;curved&quot;:0,&quot;rounded&quot;:0};rounded=1;" vertex="1" parent="BSZZwutlIpp1AhKQ46wx-1">
          <mxGeometry x="-776.94" y="947.5" width="100" height="1142.5" as="geometry" />
        </mxCell>
        <mxCell id="BSZZwutlIpp1AhKQ46wx-3" value="" style="html=1;points=[];perimeter=orthogonalPerimeter;outlineConnect=0;targetShapes=umlLifeline;portConstraint=eastwest;newEdgeStyle={&quot;edgeStyle&quot;:&quot;elbowEdgeStyle&quot;,&quot;elbow&quot;:&quot;vertical&quot;,&quot;curved&quot;:0,&quot;rounded&quot;:0};" vertex="1" parent="BSZZwutlIpp1AhKQ46wx-2">
          <mxGeometry x="45" y="80" width="10" height="50" as="geometry" />
        </mxCell>
        <mxCell id="BSZZwutlIpp1AhKQ46wx-4" value="" style="html=1;points=[[0,0,0,0,5],[0,1,0,0,-5],[1,0,0,0,5],[1,1,0,0,-5]];perimeter=orthogonalPerimeter;outlineConnect=0;targetShapes=umlLifeline;portConstraint=eastwest;newEdgeStyle={&quot;curved&quot;:0,&quot;rounded&quot;:0};" vertex="1" parent="BSZZwutlIpp1AhKQ46wx-2">
          <mxGeometry x="45" y="150" width="10" height="110" as="geometry" />
        </mxCell>
        <mxCell id="BSZZwutlIpp1AhKQ46wx-8" value="進入系統()" style="html=1;verticalAlign=bottom;endArrow=block;edgeStyle=elbowEdgeStyle;elbow=vertical;curved=0;rounded=0;" parent="BSZZwutlIpp1AhKQ46wx-1" target="BSZZwutlIpp1AhKQ46wx-3" edge="1">
          <mxGeometry relative="1" as="geometry">
            <mxPoint x="-882.4200000000003" y="1037" as="sourcePoint" />
            <Array as="points">
              <mxPoint x="-817.4200000000001" y="1037" />
            </Array>
            <mxPoint x="-692.4200000000001" y="1037" as="targetPoint" />
          </mxGeometry>
        </mxCell>
        <mxCell id="BSZZwutlIpp1AhKQ46wx-10" value="：使用者" style="shape=umlActor;verticalLabelPosition=bottom;verticalAlign=top;html=1;" parent="BSZZwutlIpp1AhKQ46wx-1" vertex="1">
          <mxGeometry x="-902.4200000000001" y="927" width="30" height="60" as="geometry" />
        </mxCell>
        <mxCell id="BSZZwutlIpp1AhKQ46wx-11" value="顯示會員登入頁面" style="html=1;verticalAlign=bottom;endArrow=none;edgeStyle=elbowEdgeStyle;elbow=horizontal;curved=0;rounded=0;startArrow=open;startFill=0;endFill=0;dashed=1;" parent="BSZZwutlIpp1AhKQ46wx-1" target="BSZZwutlIpp1AhKQ46wx-3" edge="1">
          <mxGeometry relative="1" as="geometry">
            <mxPoint x="-882.4200000000003" y="1067" as="sourcePoint" />
            <Array as="points">
              <mxPoint x="-817.4200000000001" y="1067" />
            </Array>
            <mxPoint x="-692.4200000000001" y="1067" as="targetPoint" />
            <mxPoint as="offset" />
          </mxGeometry>
        </mxCell>
        <mxCell id="BSZZwutlIpp1AhKQ46wx-14" value="&amp;nbsp;[驗證成功]" style="text;html=1;strokeColor=none;fillColor=none;align=left;verticalAlign=middle;whiteSpace=wrap;rounded=0;" parent="BSZZwutlIpp1AhKQ46wx-1" vertex="1">
          <mxGeometry x="-986.97" y="1197" width="120" height="30" as="geometry" />
        </mxCell>
        <mxCell id="BSZZwutlIpp1AhKQ46wx-15" value="&amp;nbsp;[帳號驗證失敗]" style="text;html=1;strokeColor=none;fillColor=none;align=left;verticalAlign=middle;whiteSpace=wrap;rounded=0;" parent="BSZZwutlIpp1AhKQ46wx-1" vertex="1">
          <mxGeometry x="-986.97" y="1274" width="120" height="30" as="geometry" />
        </mxCell>
        <mxCell id="BSZZwutlIpp1AhKQ46wx-16" value="alt" style="shape=umlFrame;whiteSpace=wrap;html=1;pointerEvents=0;width=40;height=30;" parent="BSZZwutlIpp1AhKQ46wx-1" vertex="1">
          <mxGeometry x="-989.45" y="1152" width="679.45" height="230" as="geometry" />
        </mxCell>
        <mxCell id="BSZZwutlIpp1AhKQ46wx-25" value="：資料庫" style="shape=umlLifeline;perimeter=lifelinePerimeter;whiteSpace=wrap;html=1;container=0;dropTarget=0;collapsible=0;recursiveResize=0;outlineConnect=0;portConstraint=eastwest;newEdgeStyle={&quot;edgeStyle&quot;:&quot;elbowEdgeStyle&quot;,&quot;elbow&quot;:&quot;vertical&quot;,&quot;curved&quot;:0,&quot;rounded&quot;:0};rounded=1;" parent="BSZZwutlIpp1AhKQ46wx-1" vertex="1">
          <mxGeometry x="-452.76" y="947.5" width="100" height="1142.5" as="geometry" />
        </mxCell>
        <mxCell id="BSZZwutlIpp1AhKQ46wx-26" value="" style="html=1;points=[];perimeter=orthogonalPerimeter;outlineConnect=0;targetShapes=umlLifeline;portConstraint=eastwest;newEdgeStyle={&quot;edgeStyle&quot;:&quot;elbowEdgeStyle&quot;,&quot;elbow&quot;:&quot;vertical&quot;,&quot;curved&quot;:0,&quot;rounded&quot;:0};" parent="BSZZwutlIpp1AhKQ46wx-25" vertex="1">
          <mxGeometry x="45" y="176" width="10" height="214" as="geometry" />
        </mxCell>
        <mxCell id="BSZZwutlIpp1AhKQ46wx-28" value="輸入帳號密碼(帳號密碼)" style="html=1;verticalAlign=bottom;endArrow=block;edgeStyle=elbowEdgeStyle;elbow=horizontal;curved=0;rounded=0;align=right;" edge="1" parent="BSZZwutlIpp1AhKQ46wx-1">
          <mxGeometry x="0.7925" relative="1" as="geometry">
            <mxPoint x="-888.0007407407409" y="1112" as="sourcePoint" />
            <Array as="points">
              <mxPoint x="-817.2700000000001" y="1112" />
            </Array>
            <mxPoint x="-731.7900000000001" y="1112" as="targetPoint" />
            <mxPoint as="offset" />
          </mxGeometry>
        </mxCell>
        <mxCell id="BSZZwutlIpp1AhKQ46wx-30" value="驗證失敗" style="html=1;verticalAlign=bottom;endArrow=none;edgeStyle=elbowEdgeStyle;elbow=vertical;curved=0;rounded=0;startArrow=open;startFill=0;endFill=0;dashed=1;" parent="BSZZwutlIpp1AhKQ46wx-1" edge="1">
          <mxGeometry x="0.0079" relative="1" as="geometry">
            <mxPoint x="-560.0000000000002" y="1300.5" as="sourcePoint" />
            <Array as="points">
              <mxPoint x="-495.00000000000006" y="1300.5" />
            </Array>
            <mxPoint x="-409.52000000000004" y="1300.5" as="targetPoint" />
            <mxPoint as="offset" />
          </mxGeometry>
        </mxCell>
        <mxCell id="BSZZwutlIpp1AhKQ46wx-32" value="查詢帳號密碼(帳號密碼)" style="html=1;verticalAlign=bottom;endArrow=block;edgeStyle=elbowEdgeStyle;elbow=vertical;curved=0;rounded=0;" edge="1" parent="BSZZwutlIpp1AhKQ46wx-1">
          <mxGeometry x="-0.0015" relative="1" as="geometry">
            <mxPoint x="-560.9700000000003" y="1132" as="sourcePoint" />
            <Array as="points">
              <mxPoint x="-495.97" y="1132" />
            </Array>
            <mxPoint x="-410.49" y="1132" as="targetPoint" />
            <mxPoint as="offset" />
          </mxGeometry>
        </mxCell>
        <mxCell id="BSZZwutlIpp1AhKQ46wx-47" value="&lt;font style=&quot;font-size: 16px;&quot;&gt;會員登入循序圖&lt;/font&gt;" style="text;html=1;align=center;verticalAlign=middle;resizable=0;points=[];autosize=1;strokeColor=none;fillColor=none;" parent="BSZZwutlIpp1AhKQ46wx-1" vertex="1">
          <mxGeometry x="-785" y="880" width="140" height="30" as="geometry" />
        </mxCell>
        <mxCell id="BSZZwutlIpp1AhKQ46wx-24" value="" style="html=1;points=[];perimeter=orthogonalPerimeter;outlineConnect=0;targetShapes=umlLifeline;portConstraint=eastwest;newEdgeStyle={&quot;edgeStyle&quot;:&quot;elbowEdgeStyle&quot;,&quot;elbow&quot;:&quot;vertical&quot;,&quot;curved&quot;:0,&quot;rounded&quot;:0};" vertex="1" parent="BSZZwutlIpp1AhKQ46wx-1">
          <mxGeometry x="-570.97" y="1112" width="10" height="220" as="geometry" />
        </mxCell>
        <mxCell id="Tkp734sxcBkVjIVRbXHU-0" value="" style="endArrow=none;html=1;rounded=0;dashed=1;dashPattern=1 4;" edge="1" parent="BSZZwutlIpp1AhKQ46wx-1">
          <mxGeometry width="50" height="50" relative="1" as="geometry">
            <mxPoint x="-310" y="1252" as="sourcePoint" />
            <mxPoint x="-990" y="1252.38" as="targetPoint" />
          </mxGeometry>
        </mxCell>
        <mxCell id="Tkp734sxcBkVjIVRbXHU-1" value="驗證成功" style="html=1;verticalAlign=bottom;endArrow=none;edgeStyle=elbowEdgeStyle;elbow=vertical;curved=0;rounded=0;startArrow=open;startFill=0;endFill=0;dashed=1;" edge="1" parent="BSZZwutlIpp1AhKQ46wx-1">
          <mxGeometry x="0.0042" relative="1" as="geometry">
            <mxPoint x="-560.9700000000003" y="1172" as="sourcePoint" />
            <Array as="points">
              <mxPoint x="-495.9700000000001" y="1172" />
            </Array>
            <mxPoint x="-410.49000000000007" y="1172" as="targetPoint" />
            <mxPoint as="offset" />
          </mxGeometry>
        </mxCell>
        <mxCell id="Tkp734sxcBkVjIVRbXHU-2" value="登入成功" style="html=1;verticalAlign=bottom;endArrow=none;edgeStyle=elbowEdgeStyle;elbow=vertical;curved=0;rounded=0;startArrow=open;startFill=0;endFill=0;dashed=1;" edge="1" parent="BSZZwutlIpp1AhKQ46wx-1">
          <mxGeometry x="0.0042" relative="1" as="geometry">
            <mxPoint x="-720.0000000000002" y="1182" as="sourcePoint" />
            <Array as="points">
              <mxPoint x="-655" y="1182" />
            </Array>
            <mxPoint x="-569.52" y="1182" as="targetPoint" />
            <mxPoint as="offset" />
          </mxGeometry>
        </mxCell>
        <mxCell id="Tkp734sxcBkVjIVRbXHU-7" value="顯示主畫面" style="html=1;verticalAlign=bottom;endArrow=none;edgeStyle=elbowEdgeStyle;elbow=vertical;curved=0;rounded=0;startArrow=open;startFill=0;endFill=0;dashed=1;" edge="1" parent="BSZZwutlIpp1AhKQ46wx-1">
          <mxGeometry x="0.0042" relative="1" as="geometry">
            <mxPoint x="-882.4200000000002" y="1197" as="sourcePoint" />
            <Array as="points">
              <mxPoint x="-817.42" y="1197" />
            </Array>
            <mxPoint x="-731.94" y="1197" as="targetPoint" />
            <mxPoint as="offset" />
          </mxGeometry>
        </mxCell>
        <mxCell id="BSZZwutlIpp1AhKQ46wx-43" value="要求重新輸入帳號密碼" style="html=1;verticalAlign=bottom;endArrow=none;edgeStyle=elbowEdgeStyle;elbow=vertical;curved=0;rounded=0;startArrow=open;startFill=0;endFill=0;dashed=1;" parent="BSZZwutlIpp1AhKQ46wx-1" edge="1">
          <mxGeometry relative="1" as="geometry">
            <mxPoint x="-882.8900000000003" y="1312" as="sourcePoint" />
            <Array as="points">
              <mxPoint x="-817.8900000000001" y="1312" />
            </Array>
            <mxPoint x="-732.4100000000001" y="1312" as="targetPoint" />
            <mxPoint as="offset" />
          </mxGeometry>
        </mxCell>
        <mxCell id="unDas3XW-_ihqUgOw86k-0" value="" style="endArrow=none;dashed=1;html=1;rounded=0;" edge="1" parent="BSZZwutlIpp1AhKQ46wx-1">
          <mxGeometry width="50" height="50" relative="1" as="geometry">
            <mxPoint x="-887" y="2090" as="sourcePoint" />
            <mxPoint x="-887.4200000000001" y="1012" as="targetPoint" />
          </mxGeometry>
        </mxCell>
        <mxCell id="Tkp734sxcBkVjIVRbXHU-4" value="" style="html=1;points=[];perimeter=orthogonalPerimeter;outlineConnect=0;targetShapes=umlLifeline;portConstraint=eastwest;newEdgeStyle={&quot;edgeStyle&quot;:&quot;elbowEdgeStyle&quot;,&quot;elbow&quot;:&quot;vertical&quot;,&quot;curved&quot;:0,&quot;rounded&quot;:0};" vertex="1" parent="BSZZwutlIpp1AhKQ46wx-1">
          <mxGeometry x="-892.42" y="1032.5" width="10" height="997.5" as="geometry" />
        </mxCell>
        <mxCell id="svfmaPmnU7NDdnJViqaY-0" value="alt" style="shape=umlFrame;whiteSpace=wrap;html=1;pointerEvents=0;width=40;height=30;" vertex="1" parent="BSZZwutlIpp1AhKQ46wx-1">
          <mxGeometry x="-1100" y="1092" width="880" height="978" as="geometry" />
        </mxCell>
        <mxCell id="svfmaPmnU7NDdnJViqaY-1" value="" style="endArrow=none;html=1;rounded=0;dashed=1;dashPattern=1 4;exitX=1.003;exitY=0.333;exitDx=0;exitDy=0;exitPerimeter=0;" edge="1" parent="BSZZwutlIpp1AhKQ46wx-1" source="svfmaPmnU7NDdnJViqaY-0">
          <mxGeometry width="50" height="50" relative="1" as="geometry">
            <mxPoint x="-230" y="1430" as="sourcePoint" />
            <mxPoint x="-1100" y="1430.38" as="targetPoint" />
          </mxGeometry>
        </mxCell>
        <mxCell id="svfmaPmnU7NDdnJViqaY-2" value="&lt;font style=&quot;font-size: 15px;&quot;&gt;[登入]&lt;/font&gt;" style="text;html=1;align=center;verticalAlign=middle;resizable=0;points=[];autosize=1;strokeColor=none;fillColor=none;" vertex="1" parent="BSZZwutlIpp1AhKQ46wx-1">
          <mxGeometry x="-1090" y="1244" width="60" height="30" as="geometry" />
        </mxCell>
        <mxCell id="svfmaPmnU7NDdnJViqaY-3" value="&lt;font style=&quot;font-size: 15px;&quot;&gt;[忘記密碼]&lt;/font&gt;" style="text;html=1;align=center;verticalAlign=middle;resizable=0;points=[];autosize=1;strokeColor=none;fillColor=none;" vertex="1" parent="BSZZwutlIpp1AhKQ46wx-1">
          <mxGeometry x="-1090" y="1468" width="90" height="30" as="geometry" />
        </mxCell>
        <mxCell id="Vr0sUADkZO_sC99XXl39-1" value="按下忘記密碼按鈕()" style="html=1;verticalAlign=bottom;endArrow=block;edgeStyle=elbowEdgeStyle;elbow=vertical;curved=0;rounded=0;" edge="1" parent="BSZZwutlIpp1AhKQ46wx-1">
          <mxGeometry x="-0.0015" relative="1" as="geometry">
            <mxPoint x="-882.42" y="1450.5" as="sourcePoint" />
            <Array as="points">
              <mxPoint x="-811.42" y="1450" />
            </Array>
            <mxPoint x="-730" y="1450" as="targetPoint" />
            <mxPoint as="offset" />
          </mxGeometry>
        </mxCell>
        <mxCell id="Vr0sUADkZO_sC99XXl39-2" value="" style="html=1;points=[[0,0,0,0,5],[0,1,0,0,-5],[1,0,0,0,5],[1,1,0,0,-5]];perimeter=orthogonalPerimeter;outlineConnect=0;targetShapes=umlLifeline;portConstraint=eastwest;newEdgeStyle={&quot;curved&quot;:0,&quot;rounded&quot;:0};" vertex="1" parent="BSZZwutlIpp1AhKQ46wx-1">
          <mxGeometry x="-731.94" y="1440" width="10" height="60" as="geometry" />
        </mxCell>
        <mxCell id="6ua7_WiBmTOLXNuP6gGl-1" value="" style="edgeStyle=segmentEdgeStyle;endArrow=classic;html=1;curved=0;rounded=0;endSize=8;startSize=8;sourcePerimeterSpacing=0;targetPerimeterSpacing=0;" edge="1" parent="BSZZwutlIpp1AhKQ46wx-1" target="Vr0sUADkZO_sC99XXl39-2">
          <mxGeometry width="100" relative="1" as="geometry">
            <mxPoint x="-720" y="1458" as="sourcePoint" />
            <mxPoint x="-720" y="1485" as="targetPoint" />
            <Array as="points">
              <mxPoint x="-690" y="1458" />
              <mxPoint x="-690" y="1485" />
            </Array>
          </mxGeometry>
        </mxCell>
        <mxCell id="6ua7_WiBmTOLXNuP6gGl-2" value="切換忘記密碼頁面()" style="text;html=1;align=center;verticalAlign=middle;resizable=0;points=[];autosize=1;strokeColor=none;fillColor=none;" vertex="1" parent="BSZZwutlIpp1AhKQ46wx-1">
          <mxGeometry x="-700.97" y="1460" width="130" height="30" as="geometry" />
        </mxCell>
        <mxCell id="a6TbLZLU91EQVXwNfQEj-0" value="顯示忘記密碼頁面" style="html=1;verticalAlign=bottom;endArrow=none;edgeStyle=elbowEdgeStyle;elbow=horizontal;curved=0;rounded=0;startArrow=open;startFill=0;endFill=0;dashed=1;" edge="1" parent="BSZZwutlIpp1AhKQ46wx-1">
          <mxGeometry relative="1" as="geometry">
            <mxPoint x="-882.4200000000003" y="1489.41" as="sourcePoint" />
            <Array as="points">
              <mxPoint x="-817.4200000000001" y="1489.41" />
            </Array>
            <mxPoint x="-732" y="1489.41" as="targetPoint" />
            <mxPoint as="offset" />
          </mxGeometry>
        </mxCell>
        <mxCell id="a6TbLZLU91EQVXwNfQEj-1" value="" style="html=1;points=[];perimeter=orthogonalPerimeter;outlineConnect=0;targetShapes=umlLifeline;portConstraint=eastwest;newEdgeStyle={&quot;edgeStyle&quot;:&quot;elbowEdgeStyle&quot;,&quot;elbow&quot;:&quot;vertical&quot;,&quot;curved&quot;:0,&quot;rounded&quot;:0};" vertex="1" parent="BSZZwutlIpp1AhKQ46wx-1">
          <mxGeometry x="-570.97" y="1520" width="10" height="510" as="geometry" />
        </mxCell>
        <mxCell id="a6TbLZLU91EQVXwNfQEj-2" value="" style="html=1;points=[];perimeter=orthogonalPerimeter;outlineConnect=0;targetShapes=umlLifeline;portConstraint=eastwest;newEdgeStyle={&quot;edgeStyle&quot;:&quot;elbowEdgeStyle&quot;,&quot;elbow&quot;:&quot;vertical&quot;,&quot;curved&quot;:0,&quot;rounded&quot;:0};" vertex="1" parent="BSZZwutlIpp1AhKQ46wx-1">
          <mxGeometry x="-407.76" y="1530" width="10" height="500" as="geometry" />
        </mxCell>
        <mxCell id="pjs_Fzu2aAlTroLgfdEO-5" value="&amp;nbsp;[信箱不存在]" style="text;html=1;strokeColor=none;fillColor=none;align=left;verticalAlign=middle;whiteSpace=wrap;rounded=0;" vertex="1" parent="BSZZwutlIpp1AhKQ46wx-1">
          <mxGeometry x="-1000" y="1980" width="80" height="30" as="geometry" />
        </mxCell>
        <mxCell id="BSZZwutlIpp1AhKQ46wx-5" value="" style="html=1;points=[[0,0,0,0,5],[0,1,0,0,-5],[1,0,0,0,5],[1,1,0,0,-5]];perimeter=orthogonalPerimeter;outlineConnect=0;targetShapes=umlLifeline;portConstraint=eastwest;newEdgeStyle={&quot;curved&quot;:0,&quot;rounded&quot;:0};" vertex="1" parent="BSZZwutlIpp1AhKQ46wx-1">
          <mxGeometry x="-732.4100000000001" y="1292.25" width="10" height="35.25" as="geometry" />
        </mxCell>
        <mxCell id="BSZZwutlIpp1AhKQ46wx-31" value="登入失敗" style="html=1;verticalAlign=bottom;endArrow=none;edgeStyle=elbowEdgeStyle;elbow=vertical;curved=0;rounded=0;startArrow=open;startFill=0;endFill=0;dashed=1;" edge="1" parent="BSZZwutlIpp1AhKQ46wx-1">
          <mxGeometry relative="1" as="geometry">
            <mxPoint x="-721.4400000000003" y="1304.3" as="sourcePoint" />
            <Array as="points">
              <mxPoint x="-656.44" y="1304.3" />
            </Array>
            <mxPoint x="-570.96" y="1304.3" as="targetPoint" />
            <mxPoint as="offset" />
          </mxGeometry>
        </mxCell>
        <mxCell id="pjs_Fzu2aAlTroLgfdEO-1" value="" style="html=1;points=[[0,0,0,0,5],[0,1,0,0,-5],[1,0,0,0,5],[1,1,0,0,-5]];perimeter=orthogonalPerimeter;outlineConnect=0;targetShapes=umlLifeline;portConstraint=eastwest;newEdgeStyle={&quot;curved&quot;:0,&quot;rounded&quot;:0};" vertex="1" parent="BSZZwutlIpp1AhKQ46wx-1">
          <mxGeometry x="-731.22" y="1800" width="10" height="230" as="geometry" />
        </mxCell>
        <mxCell id="pjs_Fzu2aAlTroLgfdEO-2" value="" style="html=1;points=[[0,0,0,0,5],[0,1,0,0,-5],[1,0,0,0,5],[1,1,0,0,-5]];perimeter=orthogonalPerimeter;outlineConnect=0;targetShapes=umlLifeline;portConstraint=eastwest;newEdgeStyle={&quot;curved&quot;:0,&quot;rounded&quot;:0};" vertex="1" parent="BSZZwutlIpp1AhKQ46wx-1">
          <mxGeometry x="-730.94" y="1530" width="10" height="39.5" as="geometry" />
        </mxCell>
        <mxCell id="pjs_Fzu2aAlTroLgfdEO-3" value="" style="endArrow=none;html=1;rounded=0;dashed=1;dashPattern=1 4;entryX=-0.001;entryY=0.502;entryDx=0;entryDy=0;entryPerimeter=0;movable=1;resizable=1;rotatable=1;deletable=1;editable=1;locked=0;connectable=1;" edge="1" parent="BSZZwutlIpp1AhKQ46wx-1">
          <mxGeometry width="50" height="50" relative="1" as="geometry">
            <mxPoint x="-230" y="1940" as="sourcePoint" />
            <mxPoint x="-1009.99548" y="1943.2659999999998" as="targetPoint" />
          </mxGeometry>
        </mxCell>
        <mxCell id="pjs_Fzu2aAlTroLgfdEO-4" value="&amp;nbsp;[信箱存在]" style="text;html=1;strokeColor=none;fillColor=none;align=left;verticalAlign=middle;whiteSpace=wrap;rounded=0;" vertex="1" parent="BSZZwutlIpp1AhKQ46wx-1">
          <mxGeometry x="-1009.45" y="1607.5" width="120" height="30" as="geometry" />
        </mxCell>
        <mxCell id="pjs_Fzu2aAlTroLgfdEO-6" value="alt" style="shape=umlFrame;whiteSpace=wrap;html=1;pointerEvents=0;width=40;height=30;" vertex="1" parent="BSZZwutlIpp1AhKQ46wx-1">
          <mxGeometry x="-1009.45" y="1576.5" width="779.45" height="473.5" as="geometry" />
        </mxCell>
        <mxCell id="pjs_Fzu2aAlTroLgfdEO-7" value="" style="endArrow=none;html=1;rounded=0;dashed=1;dashPattern=1 4;entryX=-0.004;entryY=0.563;entryDx=0;entryDy=0;entryPerimeter=0;exitX=1.002;exitY=0.563;exitDx=0;exitDy=0;exitPerimeter=0;" edge="1" parent="BSZZwutlIpp1AhKQ46wx-1" source="pjs_Fzu2aAlTroLgfdEO-10" target="pjs_Fzu2aAlTroLgfdEO-10">
          <mxGeometry width="50" height="50" relative="1" as="geometry">
            <mxPoint x="-267" y="1841" as="sourcePoint" />
            <mxPoint x="-1010.3700000000001" y="1849.0600000000004" as="targetPoint" />
          </mxGeometry>
        </mxCell>
        <mxCell id="pjs_Fzu2aAlTroLgfdEO-8" value="&amp;nbsp;[驗證成功]" style="text;html=1;strokeColor=none;fillColor=none;align=left;verticalAlign=middle;whiteSpace=wrap;rounded=0;" vertex="1" parent="BSZZwutlIpp1AhKQ46wx-1">
          <mxGeometry x="-982.9000000000001" y="1761.5" width="120" height="30" as="geometry" />
        </mxCell>
        <mxCell id="pjs_Fzu2aAlTroLgfdEO-9" value="&amp;nbsp;[驗證失敗]" style="text;html=1;strokeColor=none;fillColor=none;align=left;verticalAlign=middle;whiteSpace=wrap;rounded=0;" vertex="1" parent="BSZZwutlIpp1AhKQ46wx-1">
          <mxGeometry x="-982.9000000000001" y="1841.5" width="120" height="30" as="geometry" />
        </mxCell>
        <mxCell id="pjs_Fzu2aAlTroLgfdEO-10" value="alt" style="shape=umlFrame;whiteSpace=wrap;html=1;pointerEvents=0;width=40;height=30;" vertex="1" parent="BSZZwutlIpp1AhKQ46wx-1">
          <mxGeometry x="-982.9" y="1735.5" width="714.9" height="184.5" as="geometry" />
        </mxCell>
        <mxCell id="pjs_Fzu2aAlTroLgfdEO-11" value="顯示密碼修改成功頁面" style="html=1;verticalAlign=bottom;endArrow=none;edgeStyle=elbowEdgeStyle;elbow=vertical;curved=0;rounded=0;startArrow=open;startFill=0;endFill=0;dashed=1;" edge="1" parent="BSZZwutlIpp1AhKQ46wx-1" target="pjs_Fzu2aAlTroLgfdEO-1">
          <mxGeometry relative="1" as="geometry">
            <mxPoint x="-880" y="1827" as="sourcePoint" />
            <Array as="points">
              <mxPoint x="-731" y="1826.5" />
            </Array>
            <mxPoint x="-741" y="1826.5" as="targetPoint" />
            <mxPoint as="offset" />
          </mxGeometry>
        </mxCell>
        <mxCell id="pjs_Fzu2aAlTroLgfdEO-12" value="要求重新輸入會員信箱" style="html=1;verticalAlign=bottom;endArrow=none;edgeStyle=elbowEdgeStyle;elbow=vertical;curved=0;rounded=0;startArrow=open;startFill=0;endFill=0;dashed=1;" edge="1" parent="BSZZwutlIpp1AhKQ46wx-1">
          <mxGeometry relative="1" as="geometry">
            <mxPoint x="-882.4200000000003" y="2009.77" as="sourcePoint" />
            <Array as="points">
              <mxPoint x="-817.4200000000001" y="2009.77" />
            </Array>
            <mxPoint x="-730" y="2009" as="targetPoint" />
            <mxPoint as="offset" />
          </mxGeometry>
        </mxCell>
        <mxCell id="pjs_Fzu2aAlTroLgfdEO-13" value="信箱存在" style="html=1;verticalAlign=bottom;endArrow=none;edgeStyle=elbowEdgeStyle;elbow=vertical;curved=0;rounded=0;startArrow=open;startFill=0;endFill=0;dashed=1;" edge="1" parent="BSZZwutlIpp1AhKQ46wx-1">
          <mxGeometry x="0.0042" relative="1" as="geometry">
            <mxPoint x="-558.9700000000003" y="1609.5" as="sourcePoint" />
            <Array as="points">
              <mxPoint x="-493.9700000000001" y="1609.5" />
            </Array>
            <mxPoint x="-408.49000000000007" y="1609.5" as="targetPoint" />
            <mxPoint as="offset" />
          </mxGeometry>
        </mxCell>
        <mxCell id="pjs_Fzu2aAlTroLgfdEO-14" value="要求輸入更改密碼" style="html=1;verticalAlign=bottom;endArrow=none;edgeStyle=elbowEdgeStyle;elbow=horizontal;curved=0;rounded=0;startArrow=open;startFill=0;endFill=0;dashed=1;" edge="1" parent="BSZZwutlIpp1AhKQ46wx-1" source="Tkp734sxcBkVjIVRbXHU-4">
          <mxGeometry relative="1" as="geometry">
            <mxPoint x="-719.4500000000003" y="1619.33" as="sourcePoint" />
            <Array as="points">
              <mxPoint x="-654.45" y="1619.33" />
            </Array>
            <mxPoint x="-568.97" y="1619.33" as="targetPoint" />
            <mxPoint as="offset" />
          </mxGeometry>
        </mxCell>
        <mxCell id="pjs_Fzu2aAlTroLgfdEO-15" value="輸入會員信箱(電子信箱)" style="html=1;verticalAlign=bottom;endArrow=block;edgeStyle=elbowEdgeStyle;elbow=vertical;curved=0;rounded=0;" edge="1" parent="BSZZwutlIpp1AhKQ46wx-1">
          <mxGeometry x="-0.0001" relative="1" as="geometry">
            <mxPoint x="-880" y="1536" as="sourcePoint" />
            <Array as="points" />
            <mxPoint x="-731.52" y="1535.5" as="targetPoint" />
            <mxPoint as="offset" />
          </mxGeometry>
        </mxCell>
        <mxCell id="pjs_Fzu2aAlTroLgfdEO-16" value="" style="group" connectable="0" vertex="1" parent="BSZZwutlIpp1AhKQ46wx-1">
          <mxGeometry x="-390.76" y="1679.5" width="118" height="25" as="geometry" />
        </mxCell>
        <mxCell id="pjs_Fzu2aAlTroLgfdEO-17" value="&lt;span style=&quot;font-size: 11px; background-color: rgb(255, 255, 255);&quot;&gt;驗證密碼格式()&lt;/span&gt;" style="text;whiteSpace=wrap;html=1;align=center;" vertex="1" parent="pjs_Fzu2aAlTroLgfdEO-16">
          <mxGeometry x="20" width="110" height="25" as="geometry" />
        </mxCell>
        <mxCell id="pjs_Fzu2aAlTroLgfdEO-18" value="" style="endArrow=classic;html=1;rounded=0;" edge="1" parent="pjs_Fzu2aAlTroLgfdEO-16">
          <mxGeometry width="50" height="50" relative="1" as="geometry">
            <mxPoint x="-5.029999999999973" y="2" as="sourcePoint" />
            <mxPoint x="-5.029999999999973" y="22" as="targetPoint" />
            <Array as="points">
              <mxPoint x="21" y="2" />
              <mxPoint x="21" y="12" />
              <mxPoint x="21" y="22" />
              <mxPoint x="11" y="22" />
            </Array>
          </mxGeometry>
        </mxCell>
        <mxCell id="pjs_Fzu2aAlTroLgfdEO-19" value="驗證成功" style="html=1;verticalAlign=bottom;endArrow=none;edgeStyle=elbowEdgeStyle;elbow=horizontal;curved=0;rounded=0;startArrow=open;startFill=0;endFill=0;dashed=1;" edge="1" parent="BSZZwutlIpp1AhKQ46wx-1">
          <mxGeometry x="0.0042" relative="1" as="geometry">
            <mxPoint x="-555.7600000000002" y="1761.19" as="sourcePoint" />
            <Array as="points">
              <mxPoint x="-490.76000000000005" y="1761.19" />
            </Array>
            <mxPoint x="-405.28000000000003" y="1761.19" as="targetPoint" />
            <mxPoint as="offset" />
          </mxGeometry>
        </mxCell>
        <mxCell id="pjs_Fzu2aAlTroLgfdEO-20" value="更改成功" style="html=1;verticalAlign=bottom;endArrow=none;edgeStyle=elbowEdgeStyle;elbow=vertical;curved=0;rounded=0;startArrow=open;startFill=0;endFill=0;dashed=1;" edge="1" parent="BSZZwutlIpp1AhKQ46wx-1">
          <mxGeometry x="0.0042" relative="1" as="geometry">
            <mxPoint x="-719.4500000000003" y="1814.5" as="sourcePoint" />
            <Array as="points">
              <mxPoint x="-654.45" y="1814.5" />
            </Array>
            <mxPoint x="-568.97" y="1814.5" as="targetPoint" />
            <mxPoint as="offset" />
          </mxGeometry>
        </mxCell>
        <mxCell id="pjs_Fzu2aAlTroLgfdEO-21" value="驗證失敗" style="html=1;verticalAlign=bottom;endArrow=none;edgeStyle=elbowEdgeStyle;elbow=horizontal;curved=0;rounded=0;startArrow=open;startFill=0;endFill=0;dashed=1;" edge="1" parent="BSZZwutlIpp1AhKQ46wx-1">
          <mxGeometry x="0.0007" relative="1" as="geometry">
            <mxPoint x="-558.2400000000002" y="1973.41" as="sourcePoint" />
            <Array as="points">
              <mxPoint x="-493.24" y="1973.41" />
            </Array>
            <mxPoint x="-407.76" y="1973.41" as="targetPoint" />
            <mxPoint as="offset" />
          </mxGeometry>
        </mxCell>
        <mxCell id="pjs_Fzu2aAlTroLgfdEO-22" value="更改密碼失敗" style="html=1;verticalAlign=bottom;endArrow=none;edgeStyle=elbowEdgeStyle;elbow=vertical;curved=0;rounded=0;startArrow=open;startFill=0;endFill=0;dashed=1;" edge="1" parent="BSZZwutlIpp1AhKQ46wx-1">
          <mxGeometry x="0.0042" relative="1" as="geometry">
            <mxPoint x="-719.9400000000003" y="1999" as="sourcePoint" />
            <Array as="points">
              <mxPoint x="-654.94" y="1999" />
            </Array>
            <mxPoint x="-569.46" y="1999" as="targetPoint" />
            <mxPoint as="offset" />
          </mxGeometry>
        </mxCell>
        <mxCell id="pjs_Fzu2aAlTroLgfdEO-24" value="" style="group" connectable="0" vertex="1" parent="BSZZwutlIpp1AhKQ46wx-1">
          <mxGeometry x="-390" y="1774.5" width="118" height="25" as="geometry" />
        </mxCell>
        <mxCell id="pjs_Fzu2aAlTroLgfdEO-25" value="&lt;span style=&quot;font-size: 11px; background-color: rgb(255, 255, 255);&quot;&gt;新增會員資料()&lt;/span&gt;" style="text;whiteSpace=wrap;html=1;align=center;" vertex="1" parent="pjs_Fzu2aAlTroLgfdEO-24">
          <mxGeometry x="20" width="110" height="25" as="geometry" />
        </mxCell>
        <mxCell id="pjs_Fzu2aAlTroLgfdEO-26" value="" style="endArrow=classic;html=1;rounded=0;" edge="1" parent="pjs_Fzu2aAlTroLgfdEO-24">
          <mxGeometry width="50" height="50" relative="1" as="geometry">
            <mxPoint x="-5.029999999999973" y="2" as="sourcePoint" />
            <mxPoint x="-5.029999999999973" y="22" as="targetPoint" />
            <Array as="points">
              <mxPoint x="21" y="2" />
              <mxPoint x="21" y="12" />
              <mxPoint x="21" y="22" />
              <mxPoint x="11" y="22" />
            </Array>
          </mxGeometry>
        </mxCell>
        <mxCell id="pjs_Fzu2aAlTroLgfdEO-27" value="提交會員信箱(電子信箱)" style="html=1;verticalAlign=bottom;endArrow=block;edgeStyle=elbowEdgeStyle;elbow=vertical;curved=0;rounded=0;" edge="1" parent="BSZZwutlIpp1AhKQ46wx-1">
          <mxGeometry x="-0.0015" relative="1" as="geometry">
            <mxPoint x="-719.4500000000003" y="1545.5" as="sourcePoint" />
            <Array as="points">
              <mxPoint x="-654.45" y="1545.5" />
            </Array>
            <mxPoint x="-568.97" y="1545.5" as="targetPoint" />
            <mxPoint as="offset" />
          </mxGeometry>
        </mxCell>
        <mxCell id="pjs_Fzu2aAlTroLgfdEO-28" value="查詢會員信箱(電子信箱)" style="html=1;verticalAlign=bottom;endArrow=block;edgeStyle=elbowEdgeStyle;elbow=vertical;curved=0;rounded=0;" edge="1" parent="BSZZwutlIpp1AhKQ46wx-1">
          <mxGeometry x="-0.0015" relative="1" as="geometry">
            <mxPoint x="-558.9700000000003" y="1555.5" as="sourcePoint" />
            <Array as="points">
              <mxPoint x="-493.97" y="1555.5" />
            </Array>
            <mxPoint x="-408.49" y="1555.5" as="targetPoint" />
            <mxPoint as="offset" />
          </mxGeometry>
        </mxCell>
        <mxCell id="a6TbLZLU91EQVXwNfQEj-4" value="" style="html=1;points=[[0,0,0,0,5],[0,1,0,0,-5],[1,0,0,0,5],[1,1,0,0,-5]];perimeter=orthogonalPerimeter;outlineConnect=0;targetShapes=umlLifeline;portConstraint=eastwest;newEdgeStyle={&quot;curved&quot;:0,&quot;rounded&quot;:0};" vertex="1" parent="BSZZwutlIpp1AhKQ46wx-1">
          <mxGeometry x="-732.42" y="1630" width="10" height="50" as="geometry" />
        </mxCell>
        <mxCell id="a6TbLZLU91EQVXwNfQEj-5" value="輸入更改密碼(新密碼)" style="html=1;verticalAlign=bottom;endArrow=block;edgeStyle=elbowEdgeStyle;elbow=horizontal;curved=0;rounded=0;align=right;" edge="1" parent="BSZZwutlIpp1AhKQ46wx-1">
          <mxGeometry x="0.7925" relative="1" as="geometry">
            <mxPoint x="-880" y="1645" as="sourcePoint" />
            <Array as="points">
              <mxPoint x="-817.7500000000001" y="1644.5" />
            </Array>
            <mxPoint x="-732.2700000000001" y="1644.5" as="targetPoint" />
            <mxPoint as="offset" />
          </mxGeometry>
        </mxCell>
        <mxCell id="a6TbLZLU91EQVXwNfQEj-6" value="驗證密碼(新密碼)" style="html=1;verticalAlign=bottom;endArrow=block;edgeStyle=elbowEdgeStyle;elbow=vertical;curved=0;rounded=0;" edge="1" parent="BSZZwutlIpp1AhKQ46wx-1">
          <mxGeometry x="-0.0015" relative="1" as="geometry">
            <mxPoint x="-561.4500000000003" y="1664.5" as="sourcePoint" />
            <Array as="points">
              <mxPoint x="-496.45000000000005" y="1664.5" />
            </Array>
            <mxPoint x="-410.97" y="1664.5" as="targetPoint" />
            <mxPoint as="offset" />
          </mxGeometry>
        </mxCell>
        <mxCell id="a6TbLZLU91EQVXwNfQEj-10" value="驗證帳號密碼(帳號密碼)" style="html=1;verticalAlign=bottom;endArrow=block;curved=0;rounded=0;entryX=0.097;entryY=0.036;entryDx=0;entryDy=0;entryPerimeter=0;" edge="1" parent="BSZZwutlIpp1AhKQ46wx-1" target="BSZZwutlIpp1AhKQ46wx-24">
          <mxGeometry width="80" relative="1" as="geometry">
            <mxPoint x="-721.22" y="1120" as="sourcePoint" />
            <mxPoint x="-641.22" y="1120" as="targetPoint" />
          </mxGeometry>
        </mxCell>
        <mxCell id="a6TbLZLU91EQVXwNfQEj-12" value="提交更改密碼(新密碼)" style="html=1;verticalAlign=bottom;endArrow=block;edgeStyle=elbowEdgeStyle;elbow=horizontal;curved=0;rounded=0;align=right;" edge="1" parent="BSZZwutlIpp1AhKQ46wx-1">
          <mxGeometry x="0.7925" relative="1" as="geometry">
            <mxPoint x="-721.59" y="1655" as="sourcePoint" />
            <Array as="points">
              <mxPoint x="-659.3400000000001" y="1654.5" />
            </Array>
            <mxPoint x="-573.8600000000001" y="1654.5" as="targetPoint" />
            <mxPoint as="offset" />
          </mxGeometry>
        </mxCell>
        <mxCell id="WntVIlDuxr-57eL19d1X-0" value="要求重新輸入密碼" style="html=1;verticalAlign=bottom;endArrow=none;edgeStyle=elbowEdgeStyle;elbow=vertical;curved=0;rounded=0;startArrow=open;startFill=0;endFill=0;dashed=1;" edge="1" parent="BSZZwutlIpp1AhKQ46wx-1">
          <mxGeometry relative="1" as="geometry">
            <mxPoint x="-880.22" y="1890.5" as="sourcePoint" />
            <Array as="points">
              <mxPoint x="-731.22" y="1890" />
            </Array>
            <mxPoint x="-731.22" y="1890.5" as="targetPoint" />
            <mxPoint as="offset" />
          </mxGeometry>
        </mxCell>
        <mxCell id="WntVIlDuxr-57eL19d1X-1" value="驗證失敗" style="html=1;verticalAlign=bottom;endArrow=none;edgeStyle=elbowEdgeStyle;elbow=horizontal;curved=0;rounded=0;startArrow=open;startFill=0;endFill=0;dashed=1;" edge="1" parent="BSZZwutlIpp1AhKQ46wx-1">
          <mxGeometry x="0.0042" relative="1" as="geometry">
            <mxPoint x="-557.7600000000002" y="1860" as="sourcePoint" />
            <Array as="points">
              <mxPoint x="-492.76000000000005" y="1860" />
            </Array>
            <mxPoint x="-407.28000000000003" y="1860" as="targetPoint" />
            <mxPoint as="offset" />
          </mxGeometry>
        </mxCell>
        <mxCell id="WntVIlDuxr-57eL19d1X-2" value="更改失敗" style="html=1;verticalAlign=bottom;endArrow=none;edgeStyle=elbowEdgeStyle;elbow=vertical;curved=0;rounded=0;startArrow=open;startFill=0;endFill=0;dashed=1;" edge="1" parent="BSZZwutlIpp1AhKQ46wx-1">
          <mxGeometry x="0.0042" relative="1" as="geometry">
            <mxPoint x="-720.9400000000003" y="1880" as="sourcePoint" />
            <Array as="points">
              <mxPoint x="-655.94" y="1880" />
            </Array>
            <mxPoint x="-570.46" y="1880" as="targetPoint" />
            <mxPoint as="offset" />
          </mxGeometry>
        </mxCell>
      </root>
    </mxGraphModel>
  </diagram>
  <diagram name="會員註冊循序圖" id="d03D8ASke_EuJILjUX7z">
    <mxGraphModel grid="1" page="1" gridSize="10" guides="1" tooltips="1" connect="1" arrows="1" fold="1" pageScale="1" pageWidth="1100" pageHeight="850" background="none" math="0" shadow="0">
      <root>
        <mxCell id="zuJS7TScdpKPQM_Z_yAq-0" />
        <mxCell id="zuJS7TScdpKPQM_Z_yAq-1" parent="zuJS7TScdpKPQM_Z_yAq-0" />
        <mxCell id="akf3tHxvWumSpn8Nkf2B-2" value="" style="endArrow=none;dashed=1;html=1;rounded=0;" edge="1" parent="zuJS7TScdpKPQM_Z_yAq-1">
          <mxGeometry width="50" height="50" relative="1" as="geometry">
            <mxPoint x="-818" y="1560" as="sourcePoint" />
            <mxPoint x="-818" y="1000" as="targetPoint" />
          </mxGeometry>
        </mxCell>
        <mxCell id="zuJS7TScdpKPQM_Z_yAq-2" value="：使用者介面" style="shape=umlLifeline;perimeter=lifelinePerimeter;whiteSpace=wrap;html=1;container=0;dropTarget=0;collapsible=0;recursiveResize=0;outlineConnect=0;portConstraint=eastwest;newEdgeStyle={&quot;edgeStyle&quot;:&quot;elbowEdgeStyle&quot;,&quot;elbow&quot;:&quot;vertical&quot;,&quot;curved&quot;:0,&quot;rounded&quot;:0};rounded=1;" vertex="1" parent="zuJS7TScdpKPQM_Z_yAq-1">
          <mxGeometry x="-706.94" y="935.5" width="100" height="624.5" as="geometry" />
        </mxCell>
        <mxCell id="zuJS7TScdpKPQM_Z_yAq-4" value="" style="html=1;points=[[0,0,0,0,5],[0,1,0,0,-5],[1,0,0,0,5],[1,1,0,0,-5]];perimeter=orthogonalPerimeter;outlineConnect=0;targetShapes=umlLifeline;portConstraint=eastwest;newEdgeStyle={&quot;curved&quot;:0,&quot;rounded&quot;:0};" vertex="1" parent="zuJS7TScdpKPQM_Z_yAq-2">
          <mxGeometry x="45" y="82" width="10" height="70" as="geometry" />
        </mxCell>
        <mxCell id="zuJS7TScdpKPQM_Z_yAq-5" value="" style="html=1;points=[[0,0,0,0,5],[0,1,0,0,-5],[1,0,0,0,5],[1,1,0,0,-5]];perimeter=orthogonalPerimeter;outlineConnect=0;targetShapes=umlLifeline;portConstraint=eastwest;newEdgeStyle={&quot;curved&quot;:0,&quot;rounded&quot;:0};" vertex="1" parent="zuJS7TScdpKPQM_Z_yAq-2">
          <mxGeometry x="45" y="271.5" width="10" height="30" as="geometry" />
        </mxCell>
        <mxCell id="zuJS7TScdpKPQM_Z_yAq-6" value="" style="html=1;points=[[0,0,0,0,5],[0,1,0,0,-5],[1,0,0,0,5],[1,1,0,0,-5]];perimeter=orthogonalPerimeter;outlineConnect=0;targetShapes=umlLifeline;portConstraint=eastwest;newEdgeStyle={&quot;curved&quot;:0,&quot;rounded&quot;:0};" vertex="1" parent="zuJS7TScdpKPQM_Z_yAq-2">
          <mxGeometry x="43.72" y="445" width="10" height="100" as="geometry" />
        </mxCell>
        <mxCell id="zuJS7TScdpKPQM_Z_yAq-7" value="" style="html=1;points=[[0,0,0,0,5],[0,1,0,0,-5],[1,0,0,0,5],[1,1,0,0,-5]];perimeter=orthogonalPerimeter;outlineConnect=0;targetShapes=umlLifeline;portConstraint=eastwest;newEdgeStyle={&quot;curved&quot;:0,&quot;rounded&quot;:0};" vertex="1" parent="zuJS7TScdpKPQM_Z_yAq-2">
          <mxGeometry x="45" y="192" width="10" height="39.5" as="geometry" />
        </mxCell>
        <mxCell id="zuJS7TScdpKPQM_Z_yAq-10" value="：使用者" style="shape=umlActor;verticalLabelPosition=bottom;verticalAlign=top;html=1;" vertex="1" parent="zuJS7TScdpKPQM_Z_yAq-1">
          <mxGeometry x="-832.4200000000001" y="915" width="30" height="60" as="geometry" />
        </mxCell>
        <mxCell id="zuJS7TScdpKPQM_Z_yAq-12" value="" style="endArrow=none;html=1;rounded=0;dashed=1;dashPattern=1 4;entryX=-0.001;entryY=0.502;entryDx=0;entryDy=0;entryPerimeter=0;exitX=1.001;exitY=0.234;exitDx=0;exitDy=0;exitPerimeter=0;movable=1;resizable=1;rotatable=1;deletable=1;editable=1;locked=0;connectable=1;" edge="1" parent="zuJS7TScdpKPQM_Z_yAq-1" source="zuJS7TScdpKPQM_Z_yAq-15">
          <mxGeometry width="50" height="50" relative="1" as="geometry">
            <mxPoint x="-72.97000000000003" y="1256.998" as="sourcePoint" />
            <mxPoint x="-949.99548" y="1258.2659999999998" as="targetPoint" />
          </mxGeometry>
        </mxCell>
        <mxCell id="zuJS7TScdpKPQM_Z_yAq-13" value="&amp;nbsp;[帳號已存在]" style="text;html=1;strokeColor=none;fillColor=none;align=left;verticalAlign=middle;whiteSpace=wrap;rounded=0;" vertex="1" parent="zuJS7TScdpKPQM_Z_yAq-1">
          <mxGeometry x="-949.45" y="1205" width="120" height="30" as="geometry" />
        </mxCell>
        <mxCell id="zuJS7TScdpKPQM_Z_yAq-14" value="&amp;nbsp;[帳號不存在]" style="text;html=1;strokeColor=none;fillColor=none;align=left;verticalAlign=middle;whiteSpace=wrap;rounded=0;" vertex="1" parent="zuJS7TScdpKPQM_Z_yAq-1">
          <mxGeometry x="-949.45" y="1282" width="120" height="30" as="geometry" />
        </mxCell>
        <mxCell id="zuJS7TScdpKPQM_Z_yAq-15" value="alt" style="shape=umlFrame;whiteSpace=wrap;html=1;pointerEvents=0;width=40;height=30;" vertex="1" parent="zuJS7TScdpKPQM_Z_yAq-1">
          <mxGeometry x="-949.45" y="1174" width="779.45" height="356" as="geometry" />
        </mxCell>
        <mxCell id="zuJS7TScdpKPQM_Z_yAq-16" value="" style="endArrow=none;html=1;rounded=0;dashed=1;dashPattern=1 4;entryX=-0.001;entryY=0.502;entryDx=0;entryDy=0;entryPerimeter=0;exitX=1;exitY=0.501;exitDx=0;exitDy=0;exitPerimeter=0;" edge="1" parent="zuJS7TScdpKPQM_Z_yAq-1" source="zuJS7TScdpKPQM_Z_yAq-19" target="zuJS7TScdpKPQM_Z_yAq-19">
          <mxGeometry width="50" height="50" relative="1" as="geometry">
            <mxPoint x="-188.85000000000002" y="1433.44" as="sourcePoint" />
            <mxPoint x="-950.3700000000001" y="1429.5600000000004" as="targetPoint" />
          </mxGeometry>
        </mxCell>
        <mxCell id="zuJS7TScdpKPQM_Z_yAq-17" value="&amp;nbsp;[驗證成功]" style="text;html=1;strokeColor=none;fillColor=none;align=left;verticalAlign=middle;whiteSpace=wrap;rounded=0;" vertex="1" parent="zuJS7TScdpKPQM_Z_yAq-1">
          <mxGeometry x="-914.9000000000001" y="1342" width="120" height="30" as="geometry" />
        </mxCell>
        <mxCell id="zuJS7TScdpKPQM_Z_yAq-18" value="&amp;nbsp;[驗證失敗]" style="text;html=1;strokeColor=none;fillColor=none;align=left;verticalAlign=middle;whiteSpace=wrap;rounded=0;" vertex="1" parent="zuJS7TScdpKPQM_Z_yAq-1">
          <mxGeometry x="-914.9000000000001" y="1422" width="120" height="30" as="geometry" />
        </mxCell>
        <mxCell id="zuJS7TScdpKPQM_Z_yAq-19" value="alt" style="shape=umlFrame;whiteSpace=wrap;html=1;pointerEvents=0;width=40;height=30;" vertex="1" parent="zuJS7TScdpKPQM_Z_yAq-1">
          <mxGeometry x="-914.9" y="1316" width="714.9" height="204" as="geometry" />
        </mxCell>
        <mxCell id="zuJS7TScdpKPQM_Z_yAq-20" value="顯示註冊成功頁面" style="html=1;verticalAlign=bottom;endArrow=none;edgeStyle=elbowEdgeStyle;elbow=vertical;curved=0;rounded=0;startArrow=open;startFill=0;endFill=0;dashed=1;" edge="1" parent="zuJS7TScdpKPQM_Z_yAq-1">
          <mxGeometry relative="1" as="geometry">
            <mxPoint x="-817.7200000000004" y="1407" as="sourcePoint" />
            <Array as="points">
              <mxPoint x="-663" y="1407" />
            </Array>
            <mxPoint x="-673" y="1407" as="targetPoint" />
            <mxPoint as="offset" />
          </mxGeometry>
        </mxCell>
        <mxCell id="zuJS7TScdpKPQM_Z_yAq-21" value="要求重新輸入會員資料" style="html=1;verticalAlign=bottom;endArrow=none;edgeStyle=elbowEdgeStyle;elbow=vertical;curved=0;rounded=0;startArrow=open;startFill=0;endFill=0;dashed=1;entryX=0;entryY=1;entryDx=0;entryDy=-5;entryPerimeter=0;" edge="1" parent="zuJS7TScdpKPQM_Z_yAq-1">
          <mxGeometry relative="1" as="geometry">
            <mxPoint x="-818.1500000000003" y="1468.27" as="sourcePoint" />
            <Array as="points">
              <mxPoint x="-753.1500000000001" y="1468.27" />
            </Array>
            <mxPoint x="-663.22" y="1467.5" as="targetPoint" />
            <mxPoint as="offset" />
          </mxGeometry>
        </mxCell>
        <mxCell id="zuJS7TScdpKPQM_Z_yAq-22" value="：伺服器" style="shape=umlLifeline;perimeter=lifelinePerimeter;whiteSpace=wrap;html=1;container=0;dropTarget=0;collapsible=0;recursiveResize=0;outlineConnect=0;portConstraint=eastwest;newEdgeStyle={&quot;edgeStyle&quot;:&quot;elbowEdgeStyle&quot;,&quot;elbow&quot;:&quot;vertical&quot;,&quot;curved&quot;:0,&quot;rounded&quot;:0};rounded=1;" vertex="1" parent="zuJS7TScdpKPQM_Z_yAq-1">
          <mxGeometry x="-545.97" y="935.5" width="100" height="624.5" as="geometry" />
        </mxCell>
        <mxCell id="zuJS7TScdpKPQM_Z_yAq-23" value="：資料庫" style="shape=umlLifeline;perimeter=lifelinePerimeter;whiteSpace=wrap;html=1;container=0;dropTarget=0;collapsible=0;recursiveResize=0;outlineConnect=0;portConstraint=eastwest;newEdgeStyle={&quot;edgeStyle&quot;:&quot;elbowEdgeStyle&quot;,&quot;elbow&quot;:&quot;vertical&quot;,&quot;curved&quot;:0,&quot;rounded&quot;:0};rounded=1;" vertex="1" parent="zuJS7TScdpKPQM_Z_yAq-1">
          <mxGeometry x="-382.76" y="935.5" width="100" height="624.5" as="geometry" />
        </mxCell>
        <mxCell id="zuJS7TScdpKPQM_Z_yAq-24" value="" style="html=1;points=[];perimeter=orthogonalPerimeter;outlineConnect=0;targetShapes=umlLifeline;portConstraint=eastwest;newEdgeStyle={&quot;edgeStyle&quot;:&quot;elbowEdgeStyle&quot;,&quot;elbow&quot;:&quot;vertical&quot;,&quot;curved&quot;:0,&quot;rounded&quot;:0};" vertex="1" parent="zuJS7TScdpKPQM_Z_yAq-23">
          <mxGeometry x="45" y="108" width="10" height="454" as="geometry" />
        </mxCell>
        <mxCell id="zuJS7TScdpKPQM_Z_yAq-25" value="按下會員註冊按鈕()" style="html=1;verticalAlign=bottom;endArrow=block;edgeStyle=elbowEdgeStyle;elbow=horizontal;curved=0;rounded=0;align=right;" edge="1" parent="zuJS7TScdpKPQM_Z_yAq-1">
          <mxGeometry x="0.7925" relative="1" as="geometry">
            <mxPoint x="-818.0007407407409" y="1032" as="sourcePoint" />
            <Array as="points">
              <mxPoint x="-747.2700000000001" y="1032" />
            </Array>
            <mxPoint x="-661.7900000000001" y="1032" as="targetPoint" />
            <mxPoint as="offset" />
          </mxGeometry>
        </mxCell>
        <mxCell id="zuJS7TScdpKPQM_Z_yAq-27" value="帳號已存在" style="html=1;verticalAlign=bottom;endArrow=none;edgeStyle=elbowEdgeStyle;elbow=vertical;curved=0;rounded=0;startArrow=open;startFill=0;endFill=0;dashed=1;" edge="1" parent="zuJS7TScdpKPQM_Z_yAq-1">
          <mxGeometry x="0.0042" relative="1" as="geometry">
            <mxPoint x="-490.9700000000003" y="1207" as="sourcePoint" />
            <Array as="points">
              <mxPoint x="-425.9700000000001" y="1207" />
            </Array>
            <mxPoint x="-340.49000000000007" y="1207" as="targetPoint" />
            <mxPoint as="offset" />
          </mxGeometry>
        </mxCell>
        <mxCell id="zuJS7TScdpKPQM_Z_yAq-28" value="帳號已被註冊" style="html=1;verticalAlign=bottom;endArrow=none;edgeStyle=elbowEdgeStyle;elbow=vertical;curved=0;rounded=0;startArrow=open;startFill=0;endFill=0;dashed=1;" edge="1" parent="zuJS7TScdpKPQM_Z_yAq-1">
          <mxGeometry relative="1" as="geometry">
            <mxPoint x="-651.4500000000003" y="1216.83" as="sourcePoint" />
            <Array as="points">
              <mxPoint x="-586.45" y="1216.83" />
            </Array>
            <mxPoint x="-500.9700000000001" y="1216.83" as="targetPoint" />
            <mxPoint as="offset" />
          </mxGeometry>
        </mxCell>
        <mxCell id="zuJS7TScdpKPQM_Z_yAq-29" value="輸入會員資料(會員資料)" style="html=1;verticalAlign=bottom;endArrow=block;edgeStyle=elbowEdgeStyle;elbow=vertical;curved=0;rounded=0;" edge="1" parent="zuJS7TScdpKPQM_Z_yAq-1">
          <mxGeometry x="-0.0015" relative="1" as="geometry">
            <mxPoint x="-814.0000000000002" y="1133" as="sourcePoint" />
            <Array as="points">
              <mxPoint x="-749" y="1133" />
            </Array>
            <mxPoint x="-663.52" y="1133" as="targetPoint" />
            <mxPoint as="offset" />
          </mxGeometry>
        </mxCell>
        <mxCell id="zuJS7TScdpKPQM_Z_yAq-31" value="" style="group" vertex="1" connectable="0" parent="zuJS7TScdpKPQM_Z_yAq-1">
          <mxGeometry x="-322.76" y="1277" width="118" height="25" as="geometry" />
        </mxCell>
        <mxCell id="zuJS7TScdpKPQM_Z_yAq-32" value="&lt;span style=&quot;font-size: 11px; background-color: rgb(255, 255, 255);&quot;&gt;驗證會員資料格式()&lt;/span&gt;" style="text;whiteSpace=wrap;html=1;align=center;" vertex="1" parent="zuJS7TScdpKPQM_Z_yAq-31">
          <mxGeometry x="20" width="110" height="25" as="geometry" />
        </mxCell>
        <mxCell id="zuJS7TScdpKPQM_Z_yAq-33" value="" style="endArrow=classic;html=1;rounded=0;" edge="1" parent="zuJS7TScdpKPQM_Z_yAq-31">
          <mxGeometry width="50" height="50" relative="1" as="geometry">
            <mxPoint x="-5.029999999999973" y="2" as="sourcePoint" />
            <mxPoint x="-5.029999999999973" y="22" as="targetPoint" />
            <Array as="points">
              <mxPoint x="21" y="2" />
              <mxPoint x="21" y="12" />
              <mxPoint x="21" y="22" />
              <mxPoint x="11" y="22" />
            </Array>
          </mxGeometry>
        </mxCell>
        <mxCell id="zuJS7TScdpKPQM_Z_yAq-34" value="驗證成功" style="html=1;verticalAlign=bottom;endArrow=none;edgeStyle=elbowEdgeStyle;elbow=horizontal;curved=0;rounded=0;startArrow=open;startFill=0;endFill=0;dashed=1;" edge="1" parent="zuJS7TScdpKPQM_Z_yAq-1">
          <mxGeometry x="0.0042" relative="1" as="geometry">
            <mxPoint x="-487.7600000000003" y="1341.69" as="sourcePoint" />
            <Array as="points">
              <mxPoint x="-422.76000000000005" y="1341.69" />
            </Array>
            <mxPoint x="-337.28000000000003" y="1341.69" as="targetPoint" />
            <mxPoint as="offset" />
          </mxGeometry>
        </mxCell>
        <mxCell id="zuJS7TScdpKPQM_Z_yAq-35" value="註冊成功" style="html=1;verticalAlign=bottom;endArrow=none;edgeStyle=elbowEdgeStyle;elbow=vertical;curved=0;rounded=0;startArrow=open;startFill=0;endFill=0;dashed=1;" edge="1" parent="zuJS7TScdpKPQM_Z_yAq-1">
          <mxGeometry x="0.0042" relative="1" as="geometry">
            <mxPoint x="-651.4500000000003" y="1395" as="sourcePoint" />
            <Array as="points">
              <mxPoint x="-586.45" y="1395" />
            </Array>
            <mxPoint x="-500.97" y="1395" as="targetPoint" />
            <mxPoint as="offset" />
          </mxGeometry>
        </mxCell>
        <mxCell id="zuJS7TScdpKPQM_Z_yAq-36" value="驗證失敗" style="html=1;verticalAlign=bottom;endArrow=none;edgeStyle=elbowEdgeStyle;elbow=horizontal;curved=0;rounded=0;startArrow=open;startFill=0;endFill=0;dashed=1;" edge="1" parent="zuJS7TScdpKPQM_Z_yAq-1">
          <mxGeometry x="0.0007" relative="1" as="geometry">
            <mxPoint x="-490.97000000000025" y="1445" as="sourcePoint" />
            <Array as="points">
              <mxPoint x="-425.97" y="1445" />
            </Array>
            <mxPoint x="-340.49" y="1445" as="targetPoint" />
            <mxPoint as="offset" />
          </mxGeometry>
        </mxCell>
        <mxCell id="zuJS7TScdpKPQM_Z_yAq-37" value="註冊失敗" style="html=1;verticalAlign=bottom;endArrow=none;edgeStyle=elbowEdgeStyle;elbow=vertical;curved=0;rounded=0;startArrow=open;startFill=0;endFill=0;dashed=1;" edge="1" parent="zuJS7TScdpKPQM_Z_yAq-1">
          <mxGeometry x="0.0042" relative="1" as="geometry">
            <mxPoint x="-651.4500000000003" y="1455" as="sourcePoint" />
            <Array as="points">
              <mxPoint x="-586.45" y="1455" />
            </Array>
            <mxPoint x="-500.96999999999997" y="1455" as="targetPoint" />
            <mxPoint as="offset" />
          </mxGeometry>
        </mxCell>
        <mxCell id="zuJS7TScdpKPQM_Z_yAq-38" value="要求輸入其他帳號" style="html=1;verticalAlign=bottom;endArrow=none;edgeStyle=elbowEdgeStyle;elbow=vertical;curved=0;rounded=0;startArrow=open;startFill=0;endFill=0;dashed=1;" edge="1" parent="zuJS7TScdpKPQM_Z_yAq-1">
          <mxGeometry relative="1" as="geometry">
            <mxPoint x="-815.0000000000003" y="1232" as="sourcePoint" />
            <Array as="points">
              <mxPoint x="-750.0000000000001" y="1232" />
            </Array>
            <mxPoint x="-664.5200000000001" y="1232" as="targetPoint" />
            <mxPoint as="offset" />
          </mxGeometry>
        </mxCell>
        <mxCell id="zuJS7TScdpKPQM_Z_yAq-39" value="" style="group" vertex="1" connectable="0" parent="zuJS7TScdpKPQM_Z_yAq-1">
          <mxGeometry x="-322" y="1355" width="118" height="25" as="geometry" />
        </mxCell>
        <mxCell id="zuJS7TScdpKPQM_Z_yAq-40" value="&lt;span style=&quot;font-size: 11px; background-color: rgb(255, 255, 255);&quot;&gt;新增會員資料()&lt;/span&gt;" style="text;whiteSpace=wrap;html=1;align=center;" vertex="1" parent="zuJS7TScdpKPQM_Z_yAq-39">
          <mxGeometry x="20" width="110" height="25" as="geometry" />
        </mxCell>
        <mxCell id="zuJS7TScdpKPQM_Z_yAq-41" value="" style="endArrow=classic;html=1;rounded=0;" edge="1" parent="zuJS7TScdpKPQM_Z_yAq-39">
          <mxGeometry width="50" height="50" relative="1" as="geometry">
            <mxPoint x="-5.029999999999973" y="2" as="sourcePoint" />
            <mxPoint x="-5.029999999999973" y="22" as="targetPoint" />
            <Array as="points">
              <mxPoint x="21" y="2" />
              <mxPoint x="21" y="12" />
              <mxPoint x="21" y="22" />
              <mxPoint x="11" y="22" />
            </Array>
          </mxGeometry>
        </mxCell>
        <mxCell id="zuJS7TScdpKPQM_Z_yAq-42" value="&lt;font style=&quot;font-size: 16px;&quot;&gt;會員註冊循序圖&lt;/font&gt;" style="text;html=1;align=center;verticalAlign=middle;resizable=0;points=[];autosize=1;strokeColor=none;fillColor=none;" vertex="1" parent="zuJS7TScdpKPQM_Z_yAq-1">
          <mxGeometry x="-655" y="868" width="140" height="30" as="geometry" />
        </mxCell>
        <mxCell id="zuJS7TScdpKPQM_Z_yAq-44" value="" style="html=1;points=[];perimeter=orthogonalPerimeter;outlineConnect=0;targetShapes=umlLifeline;portConstraint=eastwest;newEdgeStyle={&quot;edgeStyle&quot;:&quot;elbowEdgeStyle&quot;,&quot;elbow&quot;:&quot;vertical&quot;,&quot;curved&quot;:0,&quot;rounded&quot;:0};" vertex="1" parent="zuJS7TScdpKPQM_Z_yAq-1">
          <mxGeometry x="-500.97" y="1032" width="10" height="470" as="geometry" />
        </mxCell>
        <mxCell id="eW3BuC87_s44XZLgULxj-0" value="" style="edgeStyle=segmentEdgeStyle;endArrow=classic;html=1;curved=0;rounded=0;endSize=8;startSize=8;sourcePerimeterSpacing=0;targetPerimeterSpacing=0;" edge="1" parent="zuJS7TScdpKPQM_Z_yAq-1" target="zuJS7TScdpKPQM_Z_yAq-4">
          <mxGeometry width="100" relative="1" as="geometry">
            <mxPoint x="-650" y="1042" as="sourcePoint" />
            <mxPoint x="-550" y="1082" as="targetPoint" />
            <Array as="points">
              <mxPoint x="-600" y="1042" />
              <mxPoint x="-600" y="1062" />
            </Array>
          </mxGeometry>
        </mxCell>
        <mxCell id="eW3BuC87_s44XZLgULxj-1" value="切換註冊頁面()" style="text;html=1;align=center;verticalAlign=middle;resizable=0;points=[];autosize=1;strokeColor=none;fillColor=none;" vertex="1" parent="zuJS7TScdpKPQM_Z_yAq-1">
          <mxGeometry x="-609.73" y="1040" width="100" height="30" as="geometry" />
        </mxCell>
        <mxCell id="eW3BuC87_s44XZLgULxj-2" value="顯示會員註冊頁面" style="html=1;verticalAlign=bottom;endArrow=none;edgeStyle=elbowEdgeStyle;elbow=horizontal;curved=0;rounded=0;startArrow=open;startFill=0;endFill=0;dashed=1;" edge="1" parent="zuJS7TScdpKPQM_Z_yAq-1">
          <mxGeometry relative="1" as="geometry">
            <mxPoint x="-814.0000000000003" y="1082" as="sourcePoint" />
            <Array as="points">
              <mxPoint x="-749.0000000000001" y="1082" />
            </Array>
            <mxPoint x="-663.58" y="1082" as="targetPoint" />
            <mxPoint as="offset" />
          </mxGeometry>
        </mxCell>
        <mxCell id="eW3BuC87_s44XZLgULxj-3" value="提交會員資料(會員資料)" style="html=1;verticalAlign=bottom;endArrow=block;edgeStyle=elbowEdgeStyle;elbow=vertical;curved=0;rounded=0;" edge="1" parent="zuJS7TScdpKPQM_Z_yAq-1">
          <mxGeometry x="-0.0015" relative="1" as="geometry">
            <mxPoint x="-651.4500000000003" y="1143" as="sourcePoint" />
            <Array as="points">
              <mxPoint x="-586.45" y="1143" />
            </Array>
            <mxPoint x="-500.96999999999997" y="1143" as="targetPoint" />
            <mxPoint as="offset" />
          </mxGeometry>
        </mxCell>
        <mxCell id="eW3BuC87_s44XZLgULxj-4" value="查詢會員資料(會員資料)" style="html=1;verticalAlign=bottom;endArrow=block;edgeStyle=elbowEdgeStyle;elbow=vertical;curved=0;rounded=0;" edge="1" parent="zuJS7TScdpKPQM_Z_yAq-1">
          <mxGeometry x="-0.0015" relative="1" as="geometry">
            <mxPoint x="-490.97000000000025" y="1153" as="sourcePoint" />
            <Array as="points">
              <mxPoint x="-425.97" y="1153" />
            </Array>
            <mxPoint x="-340.49" y="1153" as="targetPoint" />
            <mxPoint as="offset" />
          </mxGeometry>
        </mxCell>
        <mxCell id="akf3tHxvWumSpn8Nkf2B-0" value="" style="html=1;points=[[0,0,0,0,5],[0,1,0,0,-5],[1,0,0,0,5],[1,1,0,0,-5]];perimeter=orthogonalPerimeter;outlineConnect=0;targetShapes=umlLifeline;portConstraint=eastwest;newEdgeStyle={&quot;curved&quot;:0,&quot;rounded&quot;:0};" vertex="1" parent="zuJS7TScdpKPQM_Z_yAq-1">
          <mxGeometry x="-822.42" y="1012.5" width="10" height="497.5" as="geometry" />
        </mxCell>
      </root>
    </mxGraphModel>
  </diagram>
  <diagram name="會員資料管理循序圖" id="5HJT1YMsNfAK2883uT5L">
    <mxGraphModel grid="1" page="1" gridSize="10" guides="1" tooltips="1" connect="1" arrows="1" fold="1" pageScale="1" pageWidth="1100" pageHeight="850" background="none" math="0" shadow="0">
      <root>
        <mxCell id="kOoGhTkJuslHZsMkl13E-0" />
        <mxCell id="kOoGhTkJuslHZsMkl13E-1" parent="kOoGhTkJuslHZsMkl13E-0" />
        <mxCell id="kOoGhTkJuslHZsMkl13E-15" value="：資料庫" style="shape=umlLifeline;perimeter=lifelinePerimeter;whiteSpace=wrap;html=1;container=0;dropTarget=0;collapsible=0;recursiveResize=0;outlineConnect=0;portConstraint=eastwest;newEdgeStyle={&quot;edgeStyle&quot;:&quot;elbowEdgeStyle&quot;,&quot;elbow&quot;:&quot;vertical&quot;,&quot;curved&quot;:0,&quot;rounded&quot;:0};rounded=1;" vertex="1" parent="kOoGhTkJuslHZsMkl13E-1">
          <mxGeometry x="-382.76" y="935.5" width="100" height="794.5" as="geometry" />
        </mxCell>
        <mxCell id="kOoGhTkJuslHZsMkl13E-12" value="：伺服器" style="shape=umlLifeline;perimeter=lifelinePerimeter;whiteSpace=wrap;html=1;container=0;dropTarget=0;collapsible=0;recursiveResize=0;outlineConnect=0;portConstraint=eastwest;newEdgeStyle={&quot;edgeStyle&quot;:&quot;elbowEdgeStyle&quot;,&quot;elbow&quot;:&quot;vertical&quot;,&quot;curved&quot;:0,&quot;rounded&quot;:0};rounded=1;" vertex="1" parent="kOoGhTkJuslHZsMkl13E-1">
          <mxGeometry x="-545.97" y="935.5" width="100" height="794.5" as="geometry" />
        </mxCell>
        <mxCell id="jk6vNlnlSSqctIZND4DU-3" value="" style="endArrow=none;dashed=1;html=1;rounded=0;" edge="1" parent="kOoGhTkJuslHZsMkl13E-1">
          <mxGeometry width="50" height="50" relative="1" as="geometry">
            <mxPoint x="-817" y="1730" as="sourcePoint" />
            <mxPoint x="-817.4200000000001" y="1000" as="targetPoint" />
          </mxGeometry>
        </mxCell>
        <mxCell id="kOoGhTkJuslHZsMkl13E-2" value="：使用者介面" style="shape=umlLifeline;perimeter=lifelinePerimeter;whiteSpace=wrap;html=1;container=0;dropTarget=0;collapsible=0;recursiveResize=0;outlineConnect=0;portConstraint=eastwest;newEdgeStyle={&quot;edgeStyle&quot;:&quot;elbowEdgeStyle&quot;,&quot;elbow&quot;:&quot;vertical&quot;,&quot;curved&quot;:0,&quot;rounded&quot;:0};rounded=1;" vertex="1" parent="kOoGhTkJuslHZsMkl13E-1">
          <mxGeometry x="-706.94" y="935.5" width="100" height="794.5" as="geometry" />
        </mxCell>
        <mxCell id="kOoGhTkJuslHZsMkl13E-3" value="" style="html=1;points=[];perimeter=orthogonalPerimeter;outlineConnect=0;targetShapes=umlLifeline;portConstraint=eastwest;newEdgeStyle={&quot;edgeStyle&quot;:&quot;elbowEdgeStyle&quot;,&quot;elbow&quot;:&quot;vertical&quot;,&quot;curved&quot;:0,&quot;rounded&quot;:0};" vertex="1" parent="kOoGhTkJuslHZsMkl13E-2">
          <mxGeometry x="44.53" y="94.5" width="10" height="120" as="geometry" />
        </mxCell>
        <mxCell id="OARWMO6FcCzNcXTeTgHB-0" value="" style="html=1;points=[];perimeter=orthogonalPerimeter;outlineConnect=0;targetShapes=umlLifeline;portConstraint=eastwest;newEdgeStyle={&quot;edgeStyle&quot;:&quot;elbowEdgeStyle&quot;,&quot;elbow&quot;:&quot;vertical&quot;,&quot;curved&quot;:0,&quot;rounded&quot;:0};" vertex="1" parent="kOoGhTkJuslHZsMkl13E-2">
          <mxGeometry x="44.53" y="278.5" width="10" height="135.5" as="geometry" />
        </mxCell>
        <mxCell id="OARWMO6FcCzNcXTeTgHB-2" value="" style="html=1;points=[];perimeter=orthogonalPerimeter;outlineConnect=0;targetShapes=umlLifeline;portConstraint=eastwest;newEdgeStyle={&quot;edgeStyle&quot;:&quot;elbowEdgeStyle&quot;,&quot;elbow&quot;:&quot;vertical&quot;,&quot;curved&quot;:0,&quot;rounded&quot;:0};" vertex="1" parent="kOoGhTkJuslHZsMkl13E-2">
          <mxGeometry x="205.97" y="278.5" width="10" height="125.5" as="geometry" />
        </mxCell>
        <mxCell id="OARWMO6FcCzNcXTeTgHB-4" value="&lt;span style=&quot;color: rgba(0, 0, 0, 0); font-family: monospace; font-size: 0px; text-align: start;&quot;&gt;%3CmxGraphModel%3E%3Croot%3E%3CmxCell%20id%3D%220%22%2F%3E%3CmxCell%20id%3D%221%22%20parent%3D%220%22%2F%3E%3CmxCell%20id%3D%222%22%20value%3D%22%E5%81%8F%E5%A5%BD%E8%A8%AD%E5%AE%9A%E6%9B%B4%E6%96%B0%E6%88%90%E5%8A%9F%22%20style%3D%22html%3D1%3BverticalAlign%3Dbottom%3BendArrow%3Dnone%3BedgeStyle%3DelbowEdgeStyle%3Belbow%3Dvertical%3Bcurved%3D0%3Brounded%3D0%3BstartArrow%3Dopen%3BstartFill%3D0%3BendFill%3D0%3Bdashed%3D1%3B%22%20edge%3D%221%22%20parent%3D%221%22%3E%3CmxGeometry%20x%3D%22-0.1292%22%20relative%3D%221%22%20as%3D%22geometry%22%3E%3CmxPoint%20x%3D%22-490.97%22%20y%3D%221110%22%20as%3D%22sourcePoint%22%2F%3E%3CArray%20as%3D%22points%22%3E%3CmxPoint%20x%3D%22-425.24000000000007%22%20y%3D%221110%22%2F%3E%3C%2FArray%3E%3CmxPoint%20x%3D%22-339.76000000000005%22%20y%3D%221110%22%20as%3D%22targetPoint%22%2F%3E%3CmxPoint%20as%3D%22offset%22%2F%3E%3C%2FmxGeometry%3E%3C%2FmxCell%3E%3C%2Froot%3E%3C%2FmxGraphModel%3E&lt;/span&gt;" style="html=1;points=[];perimeter=orthogonalPerimeter;outlineConnect=0;targetShapes=umlLifeline;portConstraint=eastwest;newEdgeStyle={&quot;edgeStyle&quot;:&quot;elbowEdgeStyle&quot;,&quot;elbow&quot;:&quot;vertical&quot;,&quot;curved&quot;:0,&quot;rounded&quot;:0};" vertex="1" parent="kOoGhTkJuslHZsMkl13E-2">
          <mxGeometry x="369.18" y="294" width="10" height="80" as="geometry" />
        </mxCell>
        <mxCell id="OARWMO6FcCzNcXTeTgHB-8" value="提交更改資料(會員資料)" style="html=1;verticalAlign=bottom;endArrow=block;edgeStyle=elbowEdgeStyle;elbow=vertical;curved=0;rounded=0;align=right;" edge="1" parent="kOoGhTkJuslHZsMkl13E-2">
          <mxGeometry x="0.7278" relative="1" as="geometry">
            <mxPoint x="56.93925925925919" y="298.5" as="sourcePoint" />
            <Array as="points">
              <mxPoint x="127.66999999999996" y="298.5" />
            </Array>
            <mxPoint x="207.41999999999996" y="298.5" as="targetPoint" />
            <mxPoint as="offset" />
          </mxGeometry>
        </mxCell>
        <mxCell id="OARWMO6FcCzNcXTeTgHB-5" value="輸入更改資料(會員資料)" style="html=1;verticalAlign=bottom;endArrow=block;edgeStyle=elbowEdgeStyle;elbow=vertical;curved=0;rounded=0;align=right;" edge="1" parent="kOoGhTkJuslHZsMkl13E-2">
          <mxGeometry x="0.8929" relative="1" as="geometry">
            <mxPoint x="-105.48074074074077" y="288.5" as="sourcePoint" />
            <Array as="points">
              <mxPoint x="-34.75" y="288.5" />
            </Array>
            <mxPoint x="45" y="288.5" as="targetPoint" />
            <mxPoint as="offset" />
          </mxGeometry>
        </mxCell>
        <mxCell id="OARWMO6FcCzNcXTeTgHB-10" value="顯示資料更新成功" style="html=1;verticalAlign=bottom;endArrow=none;edgeStyle=elbowEdgeStyle;elbow=vertical;curved=0;rounded=0;startArrow=open;startFill=0;endFill=0;dashed=1;" edge="1" parent="kOoGhTkJuslHZsMkl13E-2">
          <mxGeometry x="-0.1292" relative="1" as="geometry">
            <mxPoint x="-106.71000000000002" y="388.5" as="sourcePoint" />
            <Array as="points">
              <mxPoint x="-40.95000000000003" y="388.5" />
            </Array>
            <mxPoint x="44.52999999999999" y="388.5" as="targetPoint" />
            <mxPoint as="offset" />
          </mxGeometry>
        </mxCell>
        <mxCell id="kOoGhTkJuslHZsMkl13E-7" value="：使用者" style="shape=umlActor;verticalLabelPosition=bottom;verticalAlign=top;html=1;" vertex="1" parent="kOoGhTkJuslHZsMkl13E-1">
          <mxGeometry x="-832.4200000000001" y="915" width="30" height="60" as="geometry" />
        </mxCell>
        <mxCell id="kOoGhTkJuslHZsMkl13E-11" value="alt" style="shape=umlFrame;whiteSpace=wrap;html=1;pointerEvents=0;width=40;height=30;" vertex="1" parent="kOoGhTkJuslHZsMkl13E-1">
          <mxGeometry x="-980" y="1010" width="780" height="700" as="geometry" />
        </mxCell>
        <mxCell id="kOoGhTkJuslHZsMkl13E-22" value="&lt;font style=&quot;font-size: 16px;&quot;&gt;會員資料管理循序圖&lt;/font&gt;" style="text;html=1;align=center;verticalAlign=middle;resizable=0;points=[];autosize=1;strokeColor=none;fillColor=none;" vertex="1" parent="kOoGhTkJuslHZsMkl13E-1">
          <mxGeometry x="-670" y="868" width="170" height="30" as="geometry" />
        </mxCell>
        <mxCell id="kOoGhTkJuslHZsMkl13E-25" value="" style="endArrow=none;html=1;rounded=0;dashed=1;dashPattern=1 4;exitX=1;exitY=0.234;exitDx=0;exitDy=0;exitPerimeter=0;entryX=-0.005;entryY=0.249;entryDx=0;entryDy=0;entryPerimeter=0;" edge="1" parent="kOoGhTkJuslHZsMkl13E-1">
          <mxGeometry width="50" height="50" relative="1" as="geometry">
            <mxPoint x="-140.55" y="1174.002" as="sourcePoint" />
            <mxPoint x="-983.9000000000001" y="1175.61" as="targetPoint" />
          </mxGeometry>
        </mxCell>
        <mxCell id="RgUlNxjlKB3ZiEPs9vft-0" value="[偏好設定修改]" style="text;html=1;align=center;verticalAlign=middle;resizable=0;points=[];autosize=1;strokeColor=none;fillColor=none;" vertex="1" parent="kOoGhTkJuslHZsMkl13E-1">
          <mxGeometry x="-980" y="1050" width="100" height="30" as="geometry" />
        </mxCell>
        <mxCell id="OARWMO6FcCzNcXTeTgHB-6" value="" style="html=1;points=[];perimeter=orthogonalPerimeter;outlineConnect=0;targetShapes=umlLifeline;portConstraint=eastwest;newEdgeStyle={&quot;edgeStyle&quot;:&quot;elbowEdgeStyle&quot;,&quot;elbow&quot;:&quot;vertical&quot;,&quot;curved&quot;:0,&quot;rounded&quot;:0};" vertex="1" parent="kOoGhTkJuslHZsMkl13E-1">
          <mxGeometry x="-822" y="1194" width="10" height="170" as="geometry" />
        </mxCell>
        <mxCell id="OARWMO6FcCzNcXTeTgHB-14" value="[個人資料修改]" style="text;html=1;align=center;verticalAlign=middle;resizable=0;points=[];autosize=1;strokeColor=none;fillColor=none;" vertex="1" parent="kOoGhTkJuslHZsMkl13E-1">
          <mxGeometry x="-975" y="1194" width="100" height="30" as="geometry" />
        </mxCell>
        <mxCell id="OARWMO6FcCzNcXTeTgHB-15" value="" style="endArrow=none;html=1;rounded=0;dashed=1;dashPattern=1 4;exitX=0.998;exitY=0.566;exitDx=0;exitDy=0;exitPerimeter=0;entryX=-0.001;entryY=0.526;entryDx=0;entryDy=0;entryPerimeter=0;" edge="1" parent="kOoGhTkJuslHZsMkl13E-1">
          <mxGeometry width="50" height="50" relative="1" as="geometry">
            <mxPoint x="-201.55999999999995" y="1397.3700000000001" as="sourcePoint" />
            <mxPoint x="-979.9999999999999" y="1400.63" as="targetPoint" />
          </mxGeometry>
        </mxCell>
        <mxCell id="OARWMO6FcCzNcXTeTgHB-16" value="[密碼修改]" style="text;html=1;align=center;verticalAlign=middle;resizable=0;points=[];autosize=1;strokeColor=none;fillColor=none;" vertex="1" parent="kOoGhTkJuslHZsMkl13E-1">
          <mxGeometry x="-975" y="1406.75" width="80" height="30" as="geometry" />
        </mxCell>
        <mxCell id="OARWMO6FcCzNcXTeTgHB-7" value="會員資料更新成功" style="html=1;verticalAlign=bottom;endArrow=none;edgeStyle=elbowEdgeStyle;elbow=vertical;curved=0;rounded=0;startArrow=open;startFill=0;endFill=0;dashed=1;" edge="1" parent="kOoGhTkJuslHZsMkl13E-1">
          <mxGeometry x="-0.1292" relative="1" as="geometry">
            <mxPoint x="-489.97" y="1294" as="sourcePoint" />
            <Array as="points">
              <mxPoint x="-424.24000000000007" y="1294" />
            </Array>
            <mxPoint x="-338.76000000000005" y="1294" as="targetPoint" />
            <mxPoint as="offset" />
          </mxGeometry>
        </mxCell>
        <mxCell id="esslg7atbX4JOfID9qcq-2" value="執行更改資料(會員資料)" style="html=1;verticalAlign=bottom;endArrow=block;edgeStyle=elbowEdgeStyle;elbow=vertical;curved=0;rounded=0;align=right;" edge="1" parent="kOoGhTkJuslHZsMkl13E-1">
          <mxGeometry x="0.7121" relative="1" as="geometry">
            <mxPoint x="-488.82074074074086" y="1254" as="sourcePoint" />
            <Array as="points">
              <mxPoint x="-418.0900000000001" y="1254" />
            </Array>
            <mxPoint x="-338.3400000000001" y="1254" as="targetPoint" />
            <mxPoint as="offset" />
          </mxGeometry>
        </mxCell>
        <mxCell id="cZ5Ki8iNAfqjwNW4YrIa-9" value="驗證密碼格式()" style="text;html=1;align=center;verticalAlign=middle;resizable=0;points=[];autosize=1;strokeColor=none;fillColor=none;" vertex="1" parent="kOoGhTkJuslHZsMkl13E-1">
          <mxGeometry x="-296" y="1500" width="100" height="30" as="geometry" />
        </mxCell>
        <mxCell id="x-Ftm6_CD_t3FWpC1-5Q-0" value="" style="html=1;points=[];perimeter=orthogonalPerimeter;outlineConnect=0;targetShapes=umlLifeline;portConstraint=eastwest;newEdgeStyle={&quot;edgeStyle&quot;:&quot;elbowEdgeStyle&quot;,&quot;elbow&quot;:&quot;vertical&quot;,&quot;curved&quot;:0,&quot;rounded&quot;:0};" vertex="1" parent="kOoGhTkJuslHZsMkl13E-1">
          <mxGeometry x="-661.4100000000001" y="1457" width="10" height="205.5" as="geometry" />
        </mxCell>
        <mxCell id="x-Ftm6_CD_t3FWpC1-5Q-1" value="" style="html=1;points=[];perimeter=orthogonalPerimeter;outlineConnect=0;targetShapes=umlLifeline;portConstraint=eastwest;newEdgeStyle={&quot;edgeStyle&quot;:&quot;elbowEdgeStyle&quot;,&quot;elbow&quot;:&quot;vertical&quot;,&quot;curved&quot;:0,&quot;rounded&quot;:0};" vertex="1" parent="kOoGhTkJuslHZsMkl13E-1">
          <mxGeometry x="-499.97" y="1457" width="10" height="185.5" as="geometry" />
        </mxCell>
        <mxCell id="x-Ftm6_CD_t3FWpC1-5Q-2" value="&lt;span style=&quot;color: rgba(0, 0, 0, 0); font-family: monospace; font-size: 0px; text-align: start;&quot;&gt;%3CmxGraphModel%3E%3Croot%3E%3CmxCell%20id%3D%220%22%2F%3E%3CmxCell%20id%3D%221%22%20parent%3D%220%22%2F%3E%3CmxCell%20id%3D%222%22%20value%3D%22%E5%81%8F%E5%A5%BD%E8%A8%AD%E5%AE%9A%E6%9B%B4%E6%96%B0%E6%88%90%E5%8A%9F%22%20style%3D%22html%3D1%3BverticalAlign%3Dbottom%3BendArrow%3Dnone%3BedgeStyle%3DelbowEdgeStyle%3Belbow%3Dvertical%3Bcurved%3D0%3Brounded%3D0%3BstartArrow%3Dopen%3BstartFill%3D0%3BendFill%3D0%3Bdashed%3D1%3B%22%20edge%3D%221%22%20parent%3D%221%22%3E%3CmxGeometry%20x%3D%22-0.1292%22%20relative%3D%221%22%20as%3D%22geometry%22%3E%3CmxPoint%20x%3D%22-490.97%22%20y%3D%221110%22%20as%3D%22sourcePoint%22%2F%3E%3CArray%20as%3D%22points%22%3E%3CmxPoint%20x%3D%22-425.24000000000007%22%20y%3D%221110%22%2F%3E%3C%2FArray%3E%3CmxPoint%20x%3D%22-339.76000000000005%22%20y%3D%221110%22%20as%3D%22targetPoint%22%2F%3E%3CmxPoint%20as%3D%22offset%22%2F%3E%3C%2FmxGeometry%3E%3C%2FmxCell%3E%3C%2Froot%3E%3C%2FmxGraphModel%3E&lt;/span&gt;" style="html=1;points=[];perimeter=orthogonalPerimeter;outlineConnect=0;targetShapes=umlLifeline;portConstraint=eastwest;newEdgeStyle={&quot;edgeStyle&quot;:&quot;elbowEdgeStyle&quot;,&quot;elbow&quot;:&quot;vertical&quot;,&quot;curved&quot;:0,&quot;rounded&quot;:0};" vertex="1" parent="kOoGhTkJuslHZsMkl13E-1">
          <mxGeometry x="-336.76000000000005" y="1472.5" width="10" height="170" as="geometry" />
        </mxCell>
        <mxCell id="x-Ftm6_CD_t3FWpC1-5Q-3" value="提交更改密碼(新密碼)" style="html=1;verticalAlign=bottom;endArrow=block;edgeStyle=elbowEdgeStyle;elbow=vertical;curved=0;rounded=0;align=right;" edge="1" parent="kOoGhTkJuslHZsMkl13E-1">
          <mxGeometry x="0.7145" relative="1" as="geometry">
            <mxPoint x="-649.0007407407409" y="1477" as="sourcePoint" />
            <Array as="points">
              <mxPoint x="-578.2700000000001" y="1477" />
            </Array>
            <mxPoint x="-498.5200000000001" y="1477" as="targetPoint" />
            <mxPoint as="offset" />
          </mxGeometry>
        </mxCell>
        <mxCell id="x-Ftm6_CD_t3FWpC1-5Q-4" value="密碼已更新" style="html=1;verticalAlign=bottom;endArrow=none;edgeStyle=elbowEdgeStyle;elbow=vertical;curved=0;rounded=0;startArrow=open;startFill=0;endFill=0;dashed=1;" edge="1" parent="kOoGhTkJuslHZsMkl13E-1">
          <mxGeometry x="-0.1292" relative="1" as="geometry">
            <mxPoint x="-651.63" y="1577" as="sourcePoint" />
            <Array as="points">
              <mxPoint x="-585.87" y="1577" />
            </Array>
            <mxPoint x="-500.39000000000004" y="1577" as="targetPoint" />
            <mxPoint as="offset" />
          </mxGeometry>
        </mxCell>
        <mxCell id="x-Ftm6_CD_t3FWpC1-5Q-5" value="輸入更改密碼(新密碼)" style="html=1;verticalAlign=bottom;endArrow=block;edgeStyle=elbowEdgeStyle;elbow=horizontal;curved=0;rounded=0;align=right;" edge="1" parent="kOoGhTkJuslHZsMkl13E-1">
          <mxGeometry x="0.8929" relative="1" as="geometry">
            <mxPoint x="-811.4207407407408" y="1467" as="sourcePoint" />
            <Array as="points">
              <mxPoint x="-740.69" y="1467" />
            </Array>
            <mxPoint x="-660.94" y="1467" as="targetPoint" />
            <mxPoint as="offset" />
          </mxGeometry>
        </mxCell>
        <mxCell id="x-Ftm6_CD_t3FWpC1-5Q-6" value="密碼更新成功" style="html=1;verticalAlign=bottom;endArrow=none;edgeStyle=elbowEdgeStyle;elbow=vertical;curved=0;rounded=0;startArrow=open;startFill=0;endFill=0;dashed=1;" edge="1" parent="kOoGhTkJuslHZsMkl13E-1">
          <mxGeometry x="-0.1292" relative="1" as="geometry">
            <mxPoint x="-811.84" y="1587" as="sourcePoint" />
            <Array as="points">
              <mxPoint x="-746.08" y="1587" />
            </Array>
            <mxPoint x="-660.6" y="1587" as="targetPoint" />
            <mxPoint as="offset" />
          </mxGeometry>
        </mxCell>
        <mxCell id="x-Ftm6_CD_t3FWpC1-5Q-7" value="" style="html=1;points=[];perimeter=orthogonalPerimeter;outlineConnect=0;targetShapes=umlLifeline;portConstraint=eastwest;newEdgeStyle={&quot;edgeStyle&quot;:&quot;elbowEdgeStyle&quot;,&quot;elbow&quot;:&quot;vertical&quot;,&quot;curved&quot;:0,&quot;rounded&quot;:0};" vertex="1" parent="kOoGhTkJuslHZsMkl13E-1">
          <mxGeometry x="-821" y="1437" width="10" height="230" as="geometry" />
        </mxCell>
        <mxCell id="x-Ftm6_CD_t3FWpC1-5Q-8" value="密碼更新成功" style="html=1;verticalAlign=bottom;endArrow=none;edgeStyle=elbowEdgeStyle;elbow=vertical;curved=0;rounded=0;startArrow=open;startFill=0;endFill=0;dashed=1;" edge="1" parent="kOoGhTkJuslHZsMkl13E-1">
          <mxGeometry x="-0.1292" relative="1" as="geometry">
            <mxPoint x="-487.97" y="1567" as="sourcePoint" />
            <Array as="points">
              <mxPoint x="-422.24000000000007" y="1567" />
            </Array>
            <mxPoint x="-336.76000000000005" y="1567" as="targetPoint" />
            <mxPoint as="offset" />
          </mxGeometry>
        </mxCell>
        <mxCell id="x-Ftm6_CD_t3FWpC1-5Q-9" value="執行更改密碼(新密碼)" style="html=1;verticalAlign=bottom;endArrow=block;edgeStyle=elbowEdgeStyle;elbow=vertical;curved=0;rounded=0;align=right;" edge="1" parent="kOoGhTkJuslHZsMkl13E-1">
          <mxGeometry x="0.6988" relative="1" as="geometry">
            <mxPoint x="-487.82074074074086" y="1497" as="sourcePoint" />
            <Array as="points">
              <mxPoint x="-417.0900000000001" y="1497" />
            </Array>
            <mxPoint x="-337.3400000000001" y="1497" as="targetPoint" />
            <mxPoint as="offset" />
          </mxGeometry>
        </mxCell>
        <mxCell id="x-Ftm6_CD_t3FWpC1-5Q-10" value="&amp;nbsp;[修改成功]" style="text;html=1;strokeColor=none;fillColor=none;align=left;verticalAlign=middle;whiteSpace=wrap;rounded=0;" vertex="1" parent="kOoGhTkJuslHZsMkl13E-1">
          <mxGeometry x="-891" y="1557" width="80" height="30" as="geometry" />
        </mxCell>
        <mxCell id="x-Ftm6_CD_t3FWpC1-5Q-11" value="&amp;nbsp;[修改失敗]" style="text;html=1;strokeColor=none;fillColor=none;align=left;verticalAlign=middle;whiteSpace=wrap;rounded=0;" vertex="1" parent="kOoGhTkJuslHZsMkl13E-1">
          <mxGeometry x="-891" y="1619" width="72" height="30" as="geometry" />
        </mxCell>
        <mxCell id="x-Ftm6_CD_t3FWpC1-5Q-12" value="alt" style="shape=umlFrame;whiteSpace=wrap;html=1;pointerEvents=0;width=40;height=30;" vertex="1" parent="kOoGhTkJuslHZsMkl13E-1">
          <mxGeometry x="-919" y="1539" width="680" height="138" as="geometry" />
        </mxCell>
        <mxCell id="x-Ftm6_CD_t3FWpC1-5Q-13" value="" style="edgeStyle=segmentEdgeStyle;endArrow=classic;html=1;curved=0;rounded=0;endSize=8;startSize=8;sourcePerimeterSpacing=0;targetPerimeterSpacing=0;" edge="1" parent="kOoGhTkJuslHZsMkl13E-1">
          <mxGeometry width="100" relative="1" as="geometry">
            <mxPoint x="-326.34" y="1507" as="sourcePoint" />
            <mxPoint x="-326" y="1527" as="targetPoint" />
            <Array as="points">
              <mxPoint x="-289" y="1507" />
              <mxPoint x="-289" y="1527" />
            </Array>
          </mxGeometry>
        </mxCell>
        <mxCell id="x-Ftm6_CD_t3FWpC1-5Q-14" value="" style="endArrow=none;html=1;rounded=0;dashed=1;dashPattern=1 4;entryX=-0.005;entryY=0.249;entryDx=0;entryDy=0;entryPerimeter=0;" edge="1" parent="kOoGhTkJuslHZsMkl13E-1">
          <mxGeometry width="50" height="50" relative="1" as="geometry">
            <mxPoint x="-239" y="1609" as="sourcePoint" />
            <mxPoint x="-919" y="1609" as="targetPoint" />
          </mxGeometry>
        </mxCell>
        <mxCell id="x-Ftm6_CD_t3FWpC1-5Q-15" value="密碼格式錯誤" style="html=1;verticalAlign=bottom;endArrow=none;edgeStyle=elbowEdgeStyle;elbow=horizontal;curved=0;rounded=0;startArrow=open;startFill=0;endFill=0;dashed=1;" edge="1" parent="kOoGhTkJuslHZsMkl13E-1">
          <mxGeometry x="-0.1292" relative="1" as="geometry">
            <mxPoint x="-650.79" y="1639" as="sourcePoint" />
            <Array as="points">
              <mxPoint x="-585.03" y="1639" />
            </Array>
            <mxPoint x="-499.55000000000007" y="1639" as="targetPoint" />
            <mxPoint as="offset" />
          </mxGeometry>
        </mxCell>
        <mxCell id="x-Ftm6_CD_t3FWpC1-5Q-16" value="要求重新輸入密碼" style="html=1;verticalAlign=bottom;endArrow=none;edgeStyle=elbowEdgeStyle;elbow=vertical;curved=0;rounded=0;startArrow=open;startFill=0;endFill=0;dashed=1;" edge="1" parent="kOoGhTkJuslHZsMkl13E-1">
          <mxGeometry x="-0.1292" relative="1" as="geometry">
            <mxPoint x="-811" y="1649" as="sourcePoint" />
            <Array as="points">
              <mxPoint x="-745.24" y="1649" />
            </Array>
            <mxPoint x="-659.76" y="1649" as="targetPoint" />
            <mxPoint as="offset" />
          </mxGeometry>
        </mxCell>
        <mxCell id="x-Ftm6_CD_t3FWpC1-5Q-17" value="密碼更新失敗" style="html=1;verticalAlign=bottom;endArrow=none;edgeStyle=elbowEdgeStyle;elbow=vertical;curved=0;rounded=0;startArrow=open;startFill=0;endFill=0;dashed=1;" edge="1" parent="kOoGhTkJuslHZsMkl13E-1">
          <mxGeometry x="-0.1292" relative="1" as="geometry">
            <mxPoint x="-487.13000000000005" y="1629" as="sourcePoint" />
            <Array as="points">
              <mxPoint x="-421.4000000000001" y="1629" />
            </Array>
            <mxPoint x="-335.9200000000001" y="1629" as="targetPoint" />
            <mxPoint as="offset" />
          </mxGeometry>
        </mxCell>
        <mxCell id="OARWMO6FcCzNcXTeTgHB-9" value="會員資料已更新" style="html=1;verticalAlign=bottom;endArrow=none;edgeStyle=elbowEdgeStyle;elbow=vertical;curved=0;rounded=0;startArrow=open;startFill=0;endFill=0;dashed=1;" edge="1" parent="kOoGhTkJuslHZsMkl13E-1">
          <mxGeometry x="-0.1292" relative="1" as="geometry">
            <mxPoint x="-652.41" y="1314.08" as="sourcePoint" />
            <Array as="points">
              <mxPoint x="-586.65" y="1314.08" />
            </Array>
            <mxPoint x="-501.1700000000001" y="1314.08" as="targetPoint" />
            <mxPoint as="offset" />
          </mxGeometry>
        </mxCell>
        <mxCell id="kOoGhTkJuslHZsMkl13E-24" value="" style="html=1;points=[];perimeter=orthogonalPerimeter;outlineConnect=0;targetShapes=umlLifeline;portConstraint=eastwest;newEdgeStyle={&quot;edgeStyle&quot;:&quot;elbowEdgeStyle&quot;,&quot;elbow&quot;:&quot;vertical&quot;,&quot;curved&quot;:0,&quot;rounded&quot;:0};" vertex="1" parent="kOoGhTkJuslHZsMkl13E-1">
          <mxGeometry x="-500.97" y="1034.5" width="10" height="85.5" as="geometry" />
        </mxCell>
        <mxCell id="aV37GxgxCVem7jrLLRfI-3" value="&lt;span style=&quot;color: rgba(0, 0, 0, 0); font-family: monospace; font-size: 0px; text-align: start;&quot;&gt;%3CmxGraphModel%3E%3Croot%3E%3CmxCell%20id%3D%220%22%2F%3E%3CmxCell%20id%3D%221%22%20parent%3D%220%22%2F%3E%3CmxCell%20id%3D%222%22%20value%3D%22%E5%81%8F%E5%A5%BD%E8%A8%AD%E5%AE%9A%E6%9B%B4%E6%96%B0%E6%88%90%E5%8A%9F%22%20style%3D%22html%3D1%3BverticalAlign%3Dbottom%3BendArrow%3Dnone%3BedgeStyle%3DelbowEdgeStyle%3Belbow%3Dvertical%3Bcurved%3D0%3Brounded%3D0%3BstartArrow%3Dopen%3BstartFill%3D0%3BendFill%3D0%3Bdashed%3D1%3B%22%20edge%3D%221%22%20parent%3D%221%22%3E%3CmxGeometry%20x%3D%22-0.1292%22%20relative%3D%221%22%20as%3D%22geometry%22%3E%3CmxPoint%20x%3D%22-490.97%22%20y%3D%221110%22%20as%3D%22sourcePoint%22%2F%3E%3CArray%20as%3D%22points%22%3E%3CmxPoint%20x%3D%22-425.24000000000007%22%20y%3D%221110%22%2F%3E%3C%2FArray%3E%3CmxPoint%20x%3D%22-339.76000000000005%22%20y%3D%221110%22%20as%3D%22targetPoint%22%2F%3E%3CmxPoint%20as%3D%22offset%22%2F%3E%3C%2FmxGeometry%3E%3C%2FmxCell%3E%3C%2Froot%3E%3C%2FmxGraphModel%3E&lt;/span&gt;" style="html=1;points=[];perimeter=orthogonalPerimeter;outlineConnect=0;targetShapes=umlLifeline;portConstraint=eastwest;newEdgeStyle={&quot;edgeStyle&quot;:&quot;elbowEdgeStyle&quot;,&quot;elbow&quot;:&quot;vertical&quot;,&quot;curved&quot;:0,&quot;rounded&quot;:0};" vertex="1" parent="kOoGhTkJuslHZsMkl13E-1">
          <mxGeometry x="-337.76" y="1064.5" width="10" height="30" as="geometry" />
        </mxCell>
        <mxCell id="kOoGhTkJuslHZsMkl13E-17" value="修改偏好設定()" style="html=1;verticalAlign=bottom;endArrow=block;edgeStyle=elbowEdgeStyle;elbow=vertical;curved=0;rounded=0;align=right;" edge="1" parent="kOoGhTkJuslHZsMkl13E-1">
          <mxGeometry x="0.4886" relative="1" as="geometry">
            <mxPoint x="-812.4207407407408" y="1044.5" as="sourcePoint" />
            <Array as="points">
              <mxPoint x="-741.69" y="1044.5" />
            </Array>
            <mxPoint x="-661.94" y="1044.5" as="targetPoint" />
            <mxPoint as="offset" />
          </mxGeometry>
        </mxCell>
        <mxCell id="kOoGhTkJuslHZsMkl13E-29" value="" style="html=1;points=[];perimeter=orthogonalPerimeter;outlineConnect=0;targetShapes=umlLifeline;portConstraint=eastwest;newEdgeStyle={&quot;edgeStyle&quot;:&quot;elbowEdgeStyle&quot;,&quot;elbow&quot;:&quot;vertical&quot;,&quot;curved&quot;:0,&quot;rounded&quot;:0};" vertex="1" parent="kOoGhTkJuslHZsMkl13E-1">
          <mxGeometry x="-822.4200000000001" y="1020" width="10" height="130" as="geometry" />
        </mxCell>
        <mxCell id="htE_Hi2phCT5LGwVNqJ6-0" value="偏好設定更新成功" style="html=1;verticalAlign=bottom;endArrow=none;edgeStyle=elbowEdgeStyle;elbow=vertical;curved=0;rounded=0;startArrow=open;startFill=0;endFill=0;dashed=1;" edge="1" parent="kOoGhTkJuslHZsMkl13E-1">
          <mxGeometry x="-0.1292" relative="1" as="geometry">
            <mxPoint x="-490.97" y="1074.5" as="sourcePoint" />
            <Array as="points">
              <mxPoint x="-425.24000000000007" y="1074.5" />
            </Array>
            <mxPoint x="-339.76000000000005" y="1074.5" as="targetPoint" />
            <mxPoint as="offset" />
          </mxGeometry>
        </mxCell>
        <mxCell id="gVhkqGymy6O4_1rNhZmc-0" value="更新偏好設定()" style="html=1;verticalAlign=bottom;endArrow=block;edgeStyle=elbowEdgeStyle;elbow=vertical;curved=0;rounded=0;align=right;" edge="1" parent="kOoGhTkJuslHZsMkl13E-1">
          <mxGeometry x="0.462" relative="1" as="geometry">
            <mxPoint x="-650.0007407407409" y="1054.5" as="sourcePoint" />
            <Array as="points">
              <mxPoint x="-579.2700000000001" y="1054.5" />
            </Array>
            <mxPoint x="-499.5200000000001" y="1054.5" as="targetPoint" />
            <mxPoint as="offset" />
          </mxGeometry>
        </mxCell>
        <mxCell id="jk6vNlnlSSqctIZND4DU-1" value="偏好設定已更新" style="html=1;verticalAlign=bottom;endArrow=none;edgeStyle=elbowEdgeStyle;elbow=vertical;curved=0;rounded=0;startArrow=open;startFill=0;endFill=0;dashed=1;" edge="1" parent="kOoGhTkJuslHZsMkl13E-1">
          <mxGeometry x="-0.1292" relative="1" as="geometry">
            <mxPoint x="-651.24" y="1094.5" as="sourcePoint" />
            <Array as="points">
              <mxPoint x="-585.48" y="1094.5" />
            </Array>
            <mxPoint x="-500.00000000000006" y="1094.5" as="targetPoint" />
            <mxPoint as="offset" />
          </mxGeometry>
        </mxCell>
        <mxCell id="jk6vNlnlSSqctIZND4DU-2" value="顯示設定更新成功" style="html=1;verticalAlign=bottom;endArrow=none;edgeStyle=elbowEdgeStyle;elbow=vertical;curved=0;rounded=0;startArrow=open;startFill=0;endFill=0;dashed=1;" edge="1" parent="kOoGhTkJuslHZsMkl13E-1">
          <mxGeometry x="-0.1292" relative="1" as="geometry">
            <mxPoint x="-812.4200000000001" y="1124.5" as="sourcePoint" />
            <Array as="points">
              <mxPoint x="-746.6600000000001" y="1124.5" />
            </Array>
            <mxPoint x="-661.1800000000001" y="1124.5" as="targetPoint" />
            <mxPoint as="offset" />
          </mxGeometry>
        </mxCell>
      </root>
    </mxGraphModel>
  </diagram>
</mxfile>
